<svg xmlns="http://www.w3.org/2000/svg" viewBox="0 0 22.97 22.97"><defs><style>.cls-1{fill:#fff;}.cls-1,.cls-2{fill-rule:evenodd;}.cls-2{fill:#0078b0;}</style></defs><title>자산 35</title><g id="레이어_2" data-name="레이어 2"><g id="레이어_1-2" data-name="레이어 1"><polygon class="cls-1" points="0 0 22.97 0 22.97 22.97 0 22.97 0 0 0 0"/><path class="cls-2" d="M1,21.26H1a.56.56,0,0,0,0-.1s0-.05,0-.05H.81v.15H.76v-.35H.91c.07,0,.12,0,.12.08a.08.08,0,0,1,0,.08.1.1,0,0,1,0,.07v.07H1v0ZM1,21a0,0,0,0,0,0-.05H.81v.1h.1S1,21,1,21Zm.28.06a.38.38,0,0,0-.38-.36.37.37,0,0,0,0,.74.37.37,0,0,0,.38-.38Zm-.05,0a.32.32,0,0,1-.33.32.3.3,0,0,1-.31-.32.31.31,0,0,1,.31-.31.33.33,0,0,1,.33.31Z" transform="translate(-0.03 -0.08)"/><path class="cls-2" d="M21.46,14.43c0,.5-.31.73-.87.73H19.52v-.5h1.07c.1,0,.18,0,.21-.05a.21.21,0,0,0,.07-.14.27.27,0,0,0-.07-.17.3.3,0,0,0-.2-.05c-.51,0-1.15,0-1.15-.7a.7.7,0,0,1,.79-.69h1.1v.49h-1a.42.42,0,0,0-.21,0,.23.23,0,0,0-.08.18.2.2,0,0,0,.11.17,1.3,1.3,0,0,0,.22,0h.29a1,1,0,0,1,.64.18.7.7,0,0,1,.17.49Zm-2.32-.49a1,1,0,0,0-.64-.18h-.3a1.33,1.33,0,0,1-.21,0,.19.19,0,0,1-.12-.17.19.19,0,0,1,.09-.18.4.4,0,0,1,.21,0h1v-.49h-1.1c-.59,0-.79.36-.79.69,0,.72.64.69,1.15.7a.32.32,0,0,1,.2.05.26.26,0,0,1,.06.17.2.2,0,0,1-.06.14.34.34,0,0,1-.22.05H17.36v.5h1.07c.56,0,.87-.23.87-.73a.7.7,0,0,0-.16-.49Zm-2.1.74h-1.3v-.46H17v-.46H15.74v-.43H17v-.47H15.2v2.3H17v-.48ZM14.6,13a1.35,1.35,0,0,0-.67-.11H12.66v2.3h.56v-.84h.59c.2,0,.32,0,.4.1a.71.71,0,0,1,.1.46v.28h.54v-.45a.78.78,0,0,0-.08-.42.63.63,0,0,0-.28-.2.63.63,0,0,0,.39-.61A.52.52,0,0,0,14.6,13Zm-3.12-.11H9.72L9,13.61l-.67-.75H6.12v2.3H8.31L9,14.4l.68.76h1.07v-.78h.69c.47,0,1-.13,1-.77s-.49-.75-.92-.75Zm2.68,1a.72.72,0,0,1-.26,0l-.68,0v-.53h.68a.44.44,0,0,1,.26.05.2.2,0,0,1,.11.2.27.27,0,0,1-.11.23Zm-2.68.11h-.72v-.59h.72c.2,0,.33.08.33.28a.29.29,0,0,1-.33.31ZM9.36,14l.85-.91V15l-.85-1ZM8,14.68H6.66v-.46H7.88v-.46H6.66v-.43H8l.61.68L8,14.68Zm11.9-3.48h-.79l-1-1.73V11.2H17l-.22-.51H15.62l-.21.51h-.64a1.19,1.19,0,0,1-.81-.27,1.21,1.21,0,0,1-.28-.87,1.17,1.17,0,0,1,.3-.9,1.11,1.11,0,0,1,.84-.27h.52v.5h-.52a.57.57,0,0,0-.43.13.73.73,0,0,0-.15.52.84.84,0,0,0,.15.55.56.56,0,0,0,.38.11H15l.79-1.81h.83l.92,2.17V8.89h.85l1,1.6V8.89h.56V11.2ZM13.4,8.89h-.56V11.2h.56V8.89ZM12.24,9a1.31,1.31,0,0,0-.66-.1H10.31V11.2h.55v-.84h.59c.19,0,.33,0,.41.1s.08.31.08.44v.3h.56v-.47a.64.64,0,0,0-.1-.41.8.8,0,0,0-.26-.19.66.66,0,0,0,.39-.61A.58.58,0,0,0,12.24,9ZM9.92,10.72H8.64v-.46H9.9V9.78H8.64V9.37H9.92V8.89H8.08V11.2H9.92v-.48ZM7.67,8.89H6.76l-.67,1.57L5.37,8.89H4.48v2.17L3.54,8.89H2.72l-1,2.31h.59l.22-.51H3.69l.21.51H5V9.39l.81,1.81H6.3l.81-1.81V11.2h.56V8.89Zm8.91,1.3-.38-.9-.38.9Zm-4.77-.36a.5.5,0,0,1-.28.05h-.67V9.37h.67a.8.8,0,0,1,.28,0,.27.27,0,0,1,.1.22.23.23,0,0,1-.1.21Zm-9.07.36.37-.9.38.9ZM21.33,1.68H1.72V10l.67-1.53H3.82l.2.38V8.43H5.69l.38.83.36-.83h5.35a1,1,0,0,1,.62.18V8.43h1.46v.18a2,2,0,0,1,.92-.18H16.9l.2.38V8.43h1.56l.23.38V8.43h1.53v3.23H18.88l-.3-.5v.5H16.66l-.22-.53H16l-.22.53h-1a2,2,0,0,1-.89-.2v.2H11.48v-.74c0-.1,0-.12-.08-.12h-.08v.86H6.71v-.42l-.16.42h-1l-.17-.4v.4H3.56l-.2-.53H2.88l-.21.53H1.72v9.71H21.33v-5.9a2,2,0,0,1-.81.15H19.09v-.2a1.27,1.27,0,0,1-.74.2h-4.5v-.74c0-.1,0-.1-.1-.1h-.08v.84H12.19v-.87a1.92,1.92,0,0,1-.78.11h-.16v.76H9.44L9,15.12l-.47.5H5.63V12.4h3l.42.49.46-.49h2a1.3,1.3,0,0,1,.78.19V12.4H14a1.45,1.45,0,0,1,.76.19V12.4h2.68v.19a1.09,1.09,0,0,1,.67-.19h1.5v.19a1.2,1.2,0,0,1,.69-.19h1V1.68Z" transform="translate(-0.03 -0.08)"/></g></g></svg>