<svg xmlns="http://www.w3.org/2000/svg" xmlns:xlink="http://www.w3.org/1999/xlink" viewBox="0 0 30.28 19.37"><defs><style>.cls-1{fill:none;}.cls-2{fill:#fff;}.cls-3{fill:#231815;}.cls-219,.cls-4{fill:#f08300;}.cls-5{clip-path:url(#clip-path);}.cls-6,.cls-7{fill:#fef5e9;}.cls-10,.cls-100,.cls-101,.cls-102,.cls-103,.cls-104,.cls-105,.cls-106,.cls-107,.cls-108,.cls-109,.cls-11,.cls-110,.cls-111,.cls-112,.cls-113,.cls-114,.cls-115,.cls-116,.cls-117,.cls-118,.cls-119,.cls-12,.cls-120,.cls-121,.cls-122,.cls-123,.cls-124,.cls-125,.cls-126,.cls-127,.cls-128,.cls-129,.cls-13,.cls-130,.cls-131,.cls-132,.cls-133,.cls-134,.cls-135,.cls-136,.cls-137,.cls-138,.cls-139,.cls-14,.cls-140,.cls-141,.cls-142,.cls-143,.cls-144,.cls-145,.cls-146,.cls-147,.cls-148,.cls-149,.cls-15,.cls-150,.cls-151,.cls-152,.cls-153,.cls-154,.cls-155,.cls-156,.cls-157,.cls-158,.cls-159,.cls-16,.cls-160,.cls-161,.cls-162,.cls-163,.cls-164,.cls-165,.cls-166,.cls-167,.cls-168,.cls-169,.cls-17,.cls-170,.cls-171,.cls-172,.cls-173,.cls-174,.cls-175,.cls-176,.cls-177,.cls-178,.cls-179,.cls-18,.cls-180,.cls-181,.cls-182,.cls-183,.cls-184,.cls-185,.cls-186,.cls-187,.cls-188,.cls-189,.cls-19,.cls-190,.cls-191,.cls-192,.cls-193,.cls-194,.cls-195,.cls-196,.cls-197,.cls-198,.cls-199,.cls-20,.cls-200,.cls-201,.cls-202,.cls-203,.cls-204,.cls-205,.cls-206,.cls-207,.cls-208,.cls-209,.cls-21,.cls-210,.cls-211,.cls-212,.cls-213,.cls-214,.cls-215,.cls-216,.cls-217,.cls-218,.cls-219,.cls-22,.cls-23,.cls-24,.cls-25,.cls-26,.cls-27,.cls-28,.cls-29,.cls-30,.cls-31,.cls-32,.cls-33,.cls-34,.cls-35,.cls-36,.cls-37,.cls-38,.cls-39,.cls-40,.cls-41,.cls-42,.cls-43,.cls-44,.cls-45,.cls-46,.cls-47,.cls-48,.cls-49,.cls-50,.cls-51,.cls-52,.cls-53,.cls-54,.cls-55,.cls-56,.cls-57,.cls-58,.cls-59,.cls-60,.cls-61,.cls-62,.cls-63,.cls-64,.cls-65,.cls-66,.cls-67,.cls-68,.cls-69,.cls-7,.cls-70,.cls-71,.cls-72,.cls-73,.cls-74,.cls-75,.cls-76,.cls-77,.cls-78,.cls-79,.cls-8,.cls-80,.cls-81,.cls-82,.cls-83,.cls-84,.cls-85,.cls-86,.cls-87,.cls-88,.cls-89,.cls-9,.cls-90,.cls-91,.cls-92,.cls-93,.cls-94,.cls-95,.cls-96,.cls-97,.cls-98,.cls-99{fill-rule:evenodd;}.cls-8{fill:#fef5e8;}.cls-9{fill:#fef4e8;}.cls-10{fill:#fef4e7;}.cls-11{fill:#fef4e6;}.cls-12{fill:#fef3e6;}.cls-13{fill:#fef3e5;}.cls-14{fill:#fef2e4;}.cls-15{fill:#fef2e3;}.cls-16{fill:#fef1e2;}.cls-17{fill:#fef1e1;}.cls-18{fill:#fef1e0;}.cls-19{fill:#fef0df;}.cls-20{fill:#feefde;}.cls-21{fill:#feeedc;}.cls-22{fill:#feeedb;}.cls-23{fill:#feeeda;}.cls-24{fill:#feedd9;}.cls-25{fill:#feedd8;}.cls-26{fill:#fdecd8;}.cls-27{fill:#feecd7;}.cls-28{fill:#fdebd6;}.cls-29{fill:#fdebd5;}.cls-30{fill:#fdead4;}.cls-31{fill:#fdead3;}.cls-32{fill:#fdead2;}.cls-33{fill:#fde9d1;}.cls-34{fill:#fde9d0;}.cls-35{fill:#fde8d0;}.cls-36{fill:#fde8cf;}.cls-37{fill:#fde8ce;}.cls-38{fill:#fde7ce;}.cls-39{fill:#fde7cd;}.cls-40{fill:#fde6cc;}.cls-41{fill:#fde6cb;}.cls-42{fill:#fde6ca;}.cls-43{fill:#fde5c9;}.cls-44{fill:#fde5c8;}.cls-45{fill:#fde4c7;}.cls-46{fill:#fce3c6;}.cls-47{fill:#fde3c5;}.cls-48{fill:#fce2c4;}.cls-49{fill:#fce2c2;}.cls-50{fill:#fce1c1;}.cls-51{fill:#fce1c0;}.cls-52{fill:#fce0bf;}.cls-53{fill:#fcdfbe;}.cls-54{fill:#fcdfbd;}.cls-55{fill:#fcdebc;}.cls-56{fill:#fcdebb;}.cls-57{fill:#fcdeba;}.cls-58{fill:#fcddb9;}.cls-59{fill:#fcddb8;}.cls-60{fill:#fcdcb8;}.cls-61{fill:#fcdcb7;}.cls-62{fill:#fcdbb6;}.cls-63{fill:#fcdbb5;}.cls-64{fill:#fcdab4;}.cls-65{fill:#fcdab3;}.cls-66{fill:#fbdab3;}.cls-67{fill:#fbdab2;}.cls-68{fill:#fbd9b1;}.cls-69{fill:#fbd9b0;}.cls-70{fill:#fbd8af;}.cls-71{fill:#fbd8ae;}.cls-72{fill:#fbd7ad;}.cls-73{fill:#fbd6ac;}.cls-74{fill:#fbd6ab;}.cls-75{fill:#fbd6aa;}.cls-76{fill:#fbd5a9;}.cls-77{fill:#fbd5a8;}.cls-78{fill:#fbd5a7;}.cls-79{fill:#fbd4a6;}.cls-80{fill:#fbd3a5;}.cls-81{fill:#fbd2a4;}.cls-82{fill:#fbd2a3;}.cls-83{fill:#fbd1a2;}.cls-84{fill:#fbd1a1;}.cls-85{fill:#fad1a0;}.cls-86{fill:#fad19f;}.cls-87{fill:#fad09e;}.cls-88{fill:#fad09d;}.cls-89{fill:#facf9c;}.cls-90{fill:#face9b;}.cls-91{fill:#facd9a;}.cls-92{fill:#facd99;}.cls-93{fill:#facd98;}.cls-94{fill:#facd97;}.cls-95{fill:#facc96;}.cls-96{fill:#facc95;}.cls-97{fill:#facb94;}.cls-98{fill:#faca93;}.cls-99{fill:#faca92;}.cls-100{fill:#f9c991;}.cls-101{fill:#f9c88f;}.cls-102{fill:#f9c88e;}.cls-103{fill:#f9c78c;}.cls-104{fill:#f9c68b;}.cls-105{fill:#f9c68a;}.cls-106{fill:#f9c589;}.cls-107{fill:#f9c488;}.cls-108{fill:#f9c487;}.cls-109{fill:#f9c486;}.cls-110{fill:#f9c385;}.cls-111{fill:#f9c384;}.cls-112{fill:#f9c283;}.cls-113{fill:#f8c182;}.cls-114{fill:#f8c181;}.cls-115{fill:#f8c07f;}.cls-116{fill:#f8bf7e;}.cls-117{fill:#f8bf7d;}.cls-118{fill:#f8bf7c;}.cls-119{fill:#f8bf7b;}.cls-120{fill:#f8be7a;}.cls-121{fill:#f8bd79;}.cls-122{fill:#f8bd78;}.cls-123{fill:#f8bc77;}.cls-124{fill:#f8bc76;}.cls-125{fill:#f8bb75;}.cls-126{fill:#f8bb74;}.cls-127{fill:#f8ba73;}.cls-128{fill:#f8ba72;}.cls-129{fill:#f8ba71;}.cls-130{fill:#f7b970;}.cls-131{fill:#f7b86f;}.cls-132{fill:#f7b86e;}.cls-133{fill:#f7b76d;}.cls-134{fill:#f7b66c;}.cls-135{fill:#f7b66b;}.cls-136{fill:#f7b56a;}.cls-137{fill:#f7b569;}.cls-138{fill:#f7b568;}.cls-139{fill:#f7b467;}.cls-140{fill:#f7b466;}.cls-141{fill:#f7b365;}.cls-142{fill:#f7b264;}.cls-143{fill:#f7b262;}.cls-144{fill:#f6b161;}.cls-145{fill:#f6b060;}.cls-146{fill:#f6b05f;}.cls-147{fill:#f6b05e;}.cls-148{fill:#f6af5d;}.cls-149{fill:#f6af5c;}.cls-150{fill:#f6ae5b;}.cls-151{fill:#f6ad5a;}.cls-152{fill:#f6ad59;}.cls-153{fill:#f6ac58;}.cls-154{fill:#f6ab56;}.cls-155{fill:#f5ab55;}.cls-156{fill:#f5aa54;}.cls-157{fill:#f5aa53;}.cls-158{fill:#f5a952;}.cls-159{fill:#f5a951;}.cls-160{fill:#f5a850;}.cls-161{fill:#f5a74f;}.cls-162{fill:#f5a74e;}.cls-163{fill:#f5a64d;}.cls-164{fill:#f5a54b;}.cls-165{fill:#f5a54a;}.cls-166{fill:#f5a549;}.cls-167{fill:#f5a448;}.cls-168{fill:#f5a447;}.cls-169{fill:#f4a346;}.cls-170{fill:#f4a245;}.cls-171{fill:#f4a244;}.cls-172{fill:#f4a142;}.cls-173{fill:#f4a141;}.cls-174{fill:#f4a040;}.cls-175{fill:#f4a03f;}.cls-176{fill:#f49f3e;}.cls-177{fill:#f49e3d;}.cls-178{fill:#f49e3c;}.cls-179{fill:#f49d3a;}.cls-180{fill:#f49c39;}.cls-181{fill:#f49c38;}.cls-182{fill:#f39b37;}.cls-183{fill:#f39b36;}.cls-184{fill:#f39b35;}.cls-185{fill:#f39a34;}.cls-186{fill:#f39932;}.cls-187{fill:#f39931;}.cls-188{fill:#f39830;}.cls-189{fill:#f3972e;}.cls-190{fill:#f3962d;}.cls-191{fill:#f3962c;}.cls-192{fill:#f3962a;}.cls-193{fill:#f29529;}.cls-194{fill:#f29528;}.cls-195{fill:#f29426;}.cls-196{fill:#f29325;}.cls-197{fill:#f29324;}.cls-198{fill:#f29222;}.cls-199{fill:#f29120;}.cls-200{fill:#f2901f;}.cls-201{fill:#f2901e;}.cls-202{fill:#f2901c;}.cls-203{fill:#f28f1a;}.cls-204{fill:#f28f18;}.cls-205{fill:#f18e16;}.cls-206{fill:#f18d15;}.cls-207{fill:#f18c13;}.cls-208{fill:#f18c0f;}.cls-209{fill:#f18b0c;}.cls-210{fill:#f18a0a;}.cls-211{fill:#f18a07;}.cls-212{fill:#f18a05;}.cls-213{fill:#f18900;}.cls-214{fill:#f18800;}.cls-215{fill:#f18700;}.cls-216{fill:#f08600;}.cls-217{fill:#f08500;}.cls-218{fill:#f08400;}.cls-220{fill:#01111c;}</style><clipPath id="clip-path" transform="translate(0 0)"><path class="cls-1" d="M15.86,4.92a2.18,2.18,0,1,0,2.23,2.17,2.19,2.19,0,0,0-2.23-2.17"/></clipPath></defs><title>자산 34</title><g id="레이어_2" data-name="레이어 2"><g id="레이어_1-2" data-name="레이어 1"><polyline class="cls-2" points="0.11 0.11 30.17 0.11 30.17 19.26 0.11 19.26 0.11 0.11"/><path class="cls-3" d="M30.06.22V19.15H.22V.22ZM30.17,0H0V19.37H30.28V0h-.11" transform="translate(0 0)"/><path class="cls-4" d="M30.06,10.76S21.85,16.55,6.8,19.15H30.06V10.76" transform="translate(0 0)"/><g class="cls-5"><polyline class="cls-6" points="15.86 7.09 15.86 7.09 15.86 7.09 15.86 7.09 15.86 7.09"/><path class="cls-7" d="M15.86,7.09h0a0,0,0,0,0,0,0h0" transform="translate(0 0)"/><path class="cls-7" d="M15.84,7.1h0a0,0,0,0,1,0,0h0s0,0,0,0,0,0,0,0l0,0s0,0,0,0" transform="translate(0 0)"/><path class="cls-7" d="M15.83,7.1l0,0,0,0a0,0,0,0,1,0,0,0,0,0,0,1,0,0h0a0,0,0,0,0,0,0s0,0,0,0a0,0,0,0,0,0,0s0,0,0,0" transform="translate(0 0)"/><path class="cls-7" d="M15.83,7.1s0,0,0,0a0,0,0,0,1,0,0s0,0,0,0a0,0,0,0,1,0,0h0a0,0,0,0,0,0,0s0,0,0,0a0,0,0,0,0,0,0s0,0,0,0" transform="translate(0 0)"/><path class="cls-7" d="M15.82,7.1s0,0,0,0a0,0,0,0,1,0,0s0,0,0,0a0,0,0,0,1,0,0h0a0,0,0,0,0,0,0,0,0,0,0,0,.05,0,0,0,0,0,0-.05,0,0,0,0,0,0,0,0" transform="translate(0 0)"/><path class="cls-8" d="M15.81,7.1a0,0,0,0,1,0,0,0,0,0,0,1,.05,0,0,0,0,0,1-.05,0,0,0,0,0,1,0,0h0a.05.05,0,0,0,0,.05.05.05,0,1,0,0-.1.05.05,0,0,0,0,0" transform="translate(0 0)"/><path class="cls-8" d="M15.8,7.1a.05.05,0,1,1,0,.05,0,0,0,0,1,0-.05h0a.06.06,0,0,0,.06.06.06.06,0,0,0,.06-.06A.05.05,0,0,0,15.85,7a.06.06,0,0,0-.06.06" transform="translate(0 0)"/><path class="cls-9" d="M15.79,7.1A.06.06,0,0,1,15.85,7a.05.05,0,0,1,.06.06.06.06,0,0,1-.06.06.06.06,0,0,1-.06-.06h0a.08.08,0,0,0,.07.07.07.07,0,0,0,0-.14.08.08,0,0,0-.07.07" transform="translate(0 0)"/><path class="cls-10" d="M15.78,7.1a.07.07,0,1,1,.07.07.07.07,0,0,1-.07-.07h0a.08.08,0,0,0,.07.08.08.08,0,0,0,.08-.08A.07.07,0,0,0,15.85,7a.07.07,0,0,0-.07.08" transform="translate(0 0)"/><path class="cls-10" d="M15.78,7.1a.08.08,0,1,1,.16,0,.08.08,0,1,1-.16,0h0a.08.08,0,0,0,.08.08.08.08,0,0,0,.09-.08A.09.09,0,0,0,15.85,7a.09.09,0,0,0-.08.09" transform="translate(0 0)"/><path class="cls-10" d="M15.77,7.1A.08.08,0,0,1,15.85,7a.09.09,0,0,1,.09.09.08.08,0,0,1-.09.08.07.07,0,0,1-.08-.08h0a.09.09,0,0,0,.09.09A.09.09,0,0,0,16,7.1a.1.1,0,0,0-.1-.1.1.1,0,0,0-.09.1" transform="translate(0 0)"/><path class="cls-11" d="M15.76,7.1a.1.1,0,0,1,.09-.1.11.11,0,0,1,.1.1.1.1,0,0,1-.1.09.09.09,0,0,1-.09-.09h0a.11.11,0,0,0,.1.1A.11.11,0,0,0,16,7.1.11.11,0,0,0,15.85,7a.11.11,0,0,0-.1.11" transform="translate(0 0)"/><path class="cls-12" d="M15.75,7.1a.1.1,0,0,1,.1-.11A.11.11,0,0,1,16,7.1a.11.11,0,0,1-.11.1.1.1,0,0,1-.1-.1h0a.11.11,0,0,0,.11.11.11.11,0,1,0,0-.22.11.11,0,0,0-.11.11" transform="translate(0 0)"/><path class="cls-12" d="M15.74,7.1a.11.11,0,1,1,.11.11.11.11,0,0,1-.11-.11h0a.13.13,0,0,0,.12.12A.12.12,0,0,0,16,7.1.12.12,0,0,0,15.85,7a.12.12,0,0,0-.12.12" transform="translate(0 0)"/><path class="cls-13" d="M15.73,7.1A.12.12,0,0,1,15.85,7,.12.12,0,0,1,16,7.1a.12.12,0,0,1-.12.12.13.13,0,0,1-.12-.12h0a.13.13,0,0,0,.13.13.13.13,0,0,0,0-.26.13.13,0,0,0-.13.13" transform="translate(0 0)"/><path class="cls-13" d="M15.72,7.1a.13.13,0,1,1,.13.13.13.13,0,0,1-.13-.13h0a.14.14,0,0,0,.13.14A.14.14,0,0,0,16,7.1.14.14,0,0,0,15.85,7a.13.13,0,0,0-.13.14" transform="translate(0 0)"/><path class="cls-14" d="M15.72,7.1A.14.14,0,0,1,15.86,7,.14.14,0,0,1,16,7.1a.14.14,0,0,1-.14.14.15.15,0,0,1-.14-.14h0a.14.14,0,0,0,.14.14A.15.15,0,0,0,16,7.1.15.15,0,0,0,15.85,7a.15.15,0,0,0-.14.15" transform="translate(0 0)"/><path class="cls-14" d="M15.71,7.1A.15.15,0,0,1,15.85,7,.15.15,0,0,1,16,7.1a.15.15,0,0,1-.15.14.14.14,0,0,1-.14-.14h0a.15.15,0,0,0,.15.15A.16.16,0,0,0,16,7.1a.16.16,0,0,0-.16-.16.16.16,0,0,0-.15.16" transform="translate(0 0)"/><path class="cls-15" d="M15.71,7.1a.16.16,0,0,1,.15-.16A.16.16,0,0,1,16,7.1a.16.16,0,0,1-.16.15.15.15,0,0,1-.15-.15h0a.16.16,0,0,0,.16.16A.17.17,0,0,0,16,7.1a.18.18,0,0,0-.17-.17.17.17,0,0,0-.16.17" transform="translate(0 0)"/><path class="cls-15" d="M15.69,7.1a.17.17,0,0,1,.16-.17A.18.18,0,0,1,16,7.1a.17.17,0,0,1-.17.16.16.16,0,0,1-.16-.16h0a.18.18,0,0,0,.17.17A.18.18,0,0,0,16,7.1a.17.17,0,0,0-.18-.17.17.17,0,0,0-.17.17" transform="translate(0 0)"/><path class="cls-16" d="M15.68,7.1a.17.17,0,0,1,.17-.17A.16.16,0,0,1,16,7.1a.17.17,0,0,1-.17.17.18.18,0,0,1-.17-.17h0a.18.18,0,1,0,.18-.18.18.18,0,0,0-.18.18" transform="translate(0 0)"/><path class="cls-16" d="M15.67,7.1a.18.18,0,1,1,.18.18.18.18,0,0,1-.18-.18h0a.2.2,0,0,0,.19.19A.19.19,0,0,0,16,7.1a.18.18,0,0,0-.19-.19.19.19,0,0,0-.19.19" transform="translate(0 0)"/><path class="cls-16" d="M15.66,7.1a.19.19,0,0,1,.19-.19A.18.18,0,0,1,16,7.1a.19.19,0,0,1-.19.19.2.2,0,0,1-.19-.19h0a.19.19,0,0,0,.19.2.2.2,0,0,0,0-.4.19.19,0,0,0-.19.2" transform="translate(0 0)"/><path class="cls-17" d="M15.65,7.1a.2.2,0,1,1,.2.2.2.2,0,0,1-.2-.2h0a.2.2,0,0,0,.2.2.2.2,0,0,0,.21-.2.21.21,0,0,0-.21-.21.2.2,0,0,0-.2.21" transform="translate(0 0)"/><path class="cls-18" d="M15.65,7.1a.2.2,0,0,1,.2-.21.21.21,0,0,1,.21.21.2.2,0,0,1-.21.2.2.2,0,0,1-.2-.2h0a.21.21,0,0,0,.21.21.21.21,0,0,0,.22-.21.22.22,0,0,0-.22-.22.21.21,0,0,0-.21.22" transform="translate(0 0)"/><path class="cls-18" d="M15.65,7.1a.21.21,0,0,1,.21-.22.22.22,0,0,1,.22.22.21.21,0,0,1-.22.21.21.21,0,0,1-.21-.21h0a.22.22,0,0,0,.22.22.23.23,0,1,0-.22-.22" transform="translate(0 0)"/><path class="cls-19" d="M15.63,7.1a.23.23,0,1,1,.22.22.22.22,0,0,1-.22-.22h0a.24.24,0,0,0,.47,0,.24.24,0,1,0-.47,0" transform="translate(0 0)"/><path class="cls-19" d="M15.63,7.1a.23.23,0,1,1,.23.23.23.23,0,0,1-.23-.23h0a.25.25,0,0,0,.49,0,.24.24,0,0,0-.25-.24.24.24,0,0,0-.24.24" transform="translate(0 0)"/><path class="cls-19" d="M15.61,7.1a.24.24,0,0,1,.24-.24.23.23,0,0,1,.24.24.24.24,0,0,1-.24.24.24.24,0,0,1-.24-.24h0a.25.25,0,0,0,.25.25.25.25,0,1,0,0-.5.25.25,0,0,0-.25.25" transform="translate(0 0)"/><path class="cls-20" d="M15.6,7.1a.25.25,0,1,1,.25.25.25.25,0,0,1-.25-.25h0a.26.26,0,1,0,.51,0,.26.26,0,1,0-.51,0" transform="translate(0 0)"/><path class="cls-20" d="M15.59,7.1a.26.26,0,1,1,.26.26.26.26,0,0,1-.26-.26h0a.27.27,0,0,0,.53,0,.27.27,0,1,0-.53,0" transform="translate(0 0)"/><path class="cls-20" d="M15.58,7.1a.27.27,0,1,1,.27.27.27.27,0,0,1-.27-.27h0a.28.28,0,0,0,.55,0,.28.28,0,1,0-.55,0" transform="translate(0 0)"/><path class="cls-21" d="M15.58,7.1a.28.28,0,0,1,.27-.28.29.29,0,0,1,.28.28.28.28,0,0,1-.28.27.27.27,0,0,1-.27-.27h0a.29.29,0,0,0,.57,0,.29.29,0,1,0-.57,0" transform="translate(0 0)"/><path class="cls-21" d="M15.57,7.1a.28.28,0,0,1,.28-.29.29.29,0,1,1,0,.57.28.28,0,0,1-.28-.28h0a.3.3,0,0,0,.59,0,.3.3,0,1,0-.59,0" transform="translate(0 0)"/><path class="cls-21" d="M15.57,7.1a.29.29,0,1,1,.58,0,.29.29,0,1,1-.58,0h0a.31.31,0,0,0,.61,0,.31.31,0,0,0-.61,0" transform="translate(0 0)"/><path class="cls-22" d="M15.55,7.1a.3.3,0,0,1,.3-.3.29.29,0,0,1,.3.3.3.3,0,0,1-.3.3.31.31,0,0,1-.3-.3h0a.31.31,0,0,0,.31.31.31.31,0,0,0,0-.62.31.31,0,0,0-.31.31" transform="translate(0 0)"/><path class="cls-22" d="M15.55,7.1a.31.31,0,1,1,.31.31.31.31,0,0,1-.31-.31h0a.33.33,0,0,0,.32.32.32.32,0,0,0,.32-.32.32.32,0,0,0-.32-.32.32.32,0,0,0-.32.32" transform="translate(0 0)"/><path class="cls-23" d="M15.53,7.1a.32.32,0,0,1,.32-.32.32.32,0,0,1,.32.32.32.32,0,0,1-.32.32.33.33,0,0,1-.32-.32h0a.32.32,0,0,0,.32.33.33.33,0,0,0,0-.66.32.32,0,0,0-.32.33" transform="translate(0 0)"/><path class="cls-24" d="M15.52,7.1a.33.33,0,1,1,.33.33.33.33,0,0,1-.33-.33h0a.34.34,0,0,0,.67,0,.34.34,0,1,0-.67,0" transform="translate(0 0)"/><path class="cls-24" d="M15.52,7.1a.34.34,0,1,1,.33.33.34.34,0,0,1-.33-.33h0a.34.34,0,0,0,.34.34.35.35,0,0,0,.35-.34.35.35,0,0,0-.35-.35.35.35,0,0,0-.34.35" transform="translate(0 0)"/><path class="cls-25" d="M15.51,7.1a.35.35,0,0,1,.34-.35.35.35,0,0,1,.35.35.35.35,0,0,1-.35.34.34.34,0,0,1-.34-.34h0a.36.36,0,0,0,.71,0,.36.36,0,1,0-.71,0" transform="translate(0 0)"/><path class="cls-26" d="M15.5,7.1a.36.36,0,1,1,.35.35.36.36,0,0,1-.35-.35h0a.36.36,0,0,0,.36.36.36.36,0,1,0,0-.72.36.36,0,0,0-.36.36" transform="translate(0 0)"/><path class="cls-27" d="M15.49,7.1a.36.36,0,1,1,.36.36.36.36,0,0,1-.36-.36h0a.38.38,0,0,0,.37.37.37.37,0,0,0,.37-.37.36.36,0,0,0-.37-.37.37.37,0,0,0-.37.37" transform="translate(0 0)"/><path class="cls-28" d="M15.49,7.1a.37.37,0,0,1,.37-.37.36.36,0,0,1,.37.37.37.37,0,0,1-.37.37.38.38,0,0,1-.37-.37h0a.38.38,0,1,0,.38-.38.38.38,0,0,0-.38.38" transform="translate(0 0)"/><path class="cls-28" d="M15.47,7.1a.38.38,0,1,1,.38.38.38.38,0,0,1-.38-.38h0a.39.39,0,1,0,.77,0,.39.39,0,1,0-.77,0" transform="translate(0 0)"/><path class="cls-29" d="M15.47,7.1a.39.39,0,0,1,.39-.39.38.38,0,0,1,.39.39.39.39,0,0,1-.39.39.4.4,0,0,1-.39-.39h0a.38.38,0,0,0,.39.39.39.39,0,0,0,.4-.39.4.4,0,0,0-.4-.4.39.39,0,0,0-.39.4" transform="translate(0 0)"/><path class="cls-30" d="M15.46,7.1a.39.39,0,0,1,.39-.4.4.4,0,0,1,.4.4.39.39,0,0,1-.4.39.38.38,0,0,1-.39-.39h0a.41.41,0,0,0,.81,0,.41.41,0,1,0-.81,0" transform="translate(0 0)"/><path class="cls-30" d="M15.45,7.1a.41.41,0,1,1,.4.4.4.4,0,0,1-.4-.4h0a.42.42,0,0,0,.83,0,.42.42,0,1,0-.83,0" transform="translate(0 0)"/><path class="cls-31" d="M15.44,7.1a.41.41,0,0,1,.41-.42.42.42,0,0,1,.42.42.41.41,0,0,1-.42.41.41.41,0,0,1-.41-.41h0a.43.43,0,1,0,.42-.42.42.42,0,0,0-.42.42" transform="translate(0 0)"/><path class="cls-32" d="M15.43,7.1a.42.42,0,0,1,.42-.42.41.41,0,0,1,.42.42.42.42,0,0,1-.42.42.42.42,0,0,1-.42-.42h0a.43.43,0,0,0,.43.43.43.43,0,1,0,0-.86.43.43,0,0,0-.43.43" transform="translate(0 0)"/><path class="cls-32" d="M15.42,7.1a.43.43,0,1,1,.43.43.43.43,0,0,1-.43-.43h0a.44.44,0,0,0,.44.44.44.44,0,0,0,.44-.44.43.43,0,0,0-.44-.44.44.44,0,0,0-.44.44" transform="translate(0 0)"/><path class="cls-33" d="M15.41,7.1a.44.44,0,1,1,.44.44.44.44,0,0,1-.44-.44h0a.45.45,0,1,0,.44-.45.45.45,0,0,0-.44.45" transform="translate(0 0)"/><path class="cls-34" d="M15.41,7.1a.45.45,0,1,1,.45.45.45.45,0,0,1-.45-.45h0a.46.46,0,0,0,.91,0,.46.46,0,1,0-.91,0" transform="translate(0 0)"/><path class="cls-35" d="M15.4,7.1a.46.46,0,0,1,.45-.46.47.47,0,0,1,.46.46.46.46,0,0,1-.46.45.45.45,0,0,1-.45-.45h0a.47.47,0,1,0,.46-.47.47.47,0,0,0-.46.47" transform="translate(0 0)"/><path class="cls-36" d="M15.4,7.1a.46.46,0,0,1,.46-.47.47.47,0,1,1,0,.93.46.46,0,0,1-.46-.46h0a.48.48,0,0,0,.95,0,.48.48,0,1,0-.95,0" transform="translate(0 0)"/><path class="cls-37" d="M15.38,7.1a.48.48,0,0,1,.47-.48.49.49,0,0,1,.48.48.48.48,0,0,1-.48.47.47.47,0,0,1-.47-.47h0a.49.49,0,1,0,.48-.49.49.49,0,0,0-.48.49" transform="translate(0 0)"/><path class="cls-38" d="M15.37,7.1a.48.48,0,0,1,.48-.48.47.47,0,0,1,.48.48.48.48,0,0,1-.48.48.49.49,0,0,1-.48-.48h0a.5.5,0,1,0,.49-.49.49.49,0,0,0-.49.49" transform="translate(0 0)"/><path class="cls-39" d="M15.36,7.1a.49.49,0,1,1,.49.49.49.49,0,0,1-.49-.49h0a.51.51,0,0,0,.5.5.5.5,0,0,0,.5-.5.5.5,0,0,0-.5-.5.5.5,0,0,0-.5.5" transform="translate(0 0)"/><path class="cls-40" d="M15.35,7.1a.5.5,0,0,1,.5-.5.5.5,0,0,1,.5.5.5.5,0,0,1-.5.5.51.51,0,0,1-.5-.5h0a.5.5,0,0,0,.5.51.51.51,0,0,0,0-1,.5.5,0,0,0-.5.51" transform="translate(0 0)"/><path class="cls-41" d="M15.34,7.1a.51.51,0,1,1,.51.51.51.51,0,0,1-.51-.51h0a.52.52,0,1,0,.51-.52.51.51,0,0,0-.51.52" transform="translate(0 0)"/><path class="cls-41" d="M15.33,7.1a.52.52,0,0,1,.52-.52.52.52,0,0,1,.52.52.52.52,0,0,1-.52.52.53.53,0,0,1-.52-.52h0a.52.52,0,0,0,.52.52.52.52,0,0,0,.53-.52.53.53,0,0,0-.53-.53.52.52,0,0,0-.52.53" transform="translate(0 0)"/><path class="cls-42" d="M15.34,7.09a.52.52,0,0,1,.52-.53.53.53,0,0,1,.53.53.52.52,0,0,1-.53.52.52.52,0,0,1-.52-.52h0a.54.54,0,1,0,.53-.54.53.53,0,0,0-.53.54" transform="translate(0 0)"/><path class="cls-42" d="M15.32,7.1a.54.54,0,1,1,.53.53.54.54,0,0,1-.53-.53h0a.54.54,0,0,0,.54.54.55.55,0,0,0,.55-.54.55.55,0,0,0-.55-.55.55.55,0,0,0-.54.55" transform="translate(0 0)"/><path class="cls-43" d="M15.31,7.1a.55.55,0,0,1,.54-.55.55.55,0,0,1,.55.55.55.55,0,0,1-.55.54.54.54,0,0,1-.54-.54h0a.56.56,0,1,0,.55-.55.55.55,0,0,0-.55.55" transform="translate(0 0)"/><path class="cls-44" d="M15.3,7.1a.55.55,0,0,1,.55-.55.54.54,0,0,1,.55.55.55.55,0,0,1-.55.55.55.55,0,0,1-.55-.55h0a.56.56,0,1,0,.56-.56.56.56,0,0,0-.56.56" transform="translate(0 0)"/><path class="cls-45" d="M15.29,7.1a.56.56,0,1,1,.56.56.56.56,0,0,1-.56-.56h0a.58.58,0,0,0,.57.57.57.57,0,0,0,.57-.57.56.56,0,0,0-.57-.57.57.57,0,0,0-.57.57" transform="translate(0 0)"/><path class="cls-45" d="M15.28,7.1a.57.57,0,0,1,.57-.57.56.56,0,0,1,.57.57.57.57,0,0,1-.57.57.58.58,0,0,1-.57-.57h0a.57.57,0,0,0,.57.58.58.58,0,0,0,0-1.16.57.57,0,0,0-.57.58" transform="translate(0 0)"/><path class="cls-46" d="M15.27,7.1a.58.58,0,1,1,.58.58.58.58,0,0,1-.58-.58h0a.59.59,0,1,0,.58-.59.58.58,0,0,0-.58.59" transform="translate(0 0)"/><path class="cls-47" d="M15.27,7.1a.59.59,0,1,1,.58.58.58.58,0,0,1-.58-.58h0a.6.6,0,0,0,1.19,0,.6.6,0,1,0-1.19,0" transform="translate(0 0)"/><path class="cls-48" d="M15.26,7.1a.59.59,0,0,1,.59-.6.6.6,0,0,1,.6.6.59.59,0,0,1-.6.59.58.58,0,0,1-.59-.59h0a.61.61,0,1,0,.6-.61.6.6,0,0,0-.6.61" transform="translate(0 0)"/><path class="cls-48" d="M15.26,7.1a.6.6,0,0,1,.6-.61.61.61,0,1,1,0,1.21.6.6,0,0,1-.6-.6h0a.62.62,0,1,0,.61-.61.61.61,0,0,0-.61.61" transform="translate(0 0)"/><path class="cls-48" d="M15.24,7.1a.61.61,0,1,1,.61.61.61.61,0,0,1-.61-.61h0a.62.62,0,0,0,.62.62.62.62,0,1,0,0-1.24.62.62,0,0,0-.62.62" transform="translate(0 0)"/><path class="cls-49" d="M15.23,7.1a.62.62,0,1,1,.62.62.62.62,0,0,1-.62-.62h0a.63.63,0,0,0,.63.63.63.63,0,1,0,0-1.26.63.63,0,0,0-.63.63" transform="translate(0 0)"/><path class="cls-49" d="M15.22,7.1a.63.63,0,1,1,.63.63.63.63,0,0,1-.63-.63h0a.64.64,0,1,0,.63-.64.64.64,0,0,0-.63.64" transform="translate(0 0)"/><path class="cls-50" d="M15.21,7.1a.64.64,0,1,1,.64.64.64.64,0,0,1-.64-.64h0a.65.65,0,1,0,.64-.65.64.64,0,0,0-.64.65" transform="translate(0 0)"/><path class="cls-51" d="M15.21,7.1a.65.65,0,1,1,.64.64.65.65,0,0,1-.64-.64h0a.66.66,0,0,0,1.31,0,.66.66,0,1,0-1.31,0" transform="translate(0 0)"/><path class="cls-52" d="M15.2,7.1a.66.66,0,0,1,.65-.66.67.67,0,0,1,.66.66.66.66,0,0,1-.66.65.65.65,0,0,1-.65-.65h0a.67.67,0,1,0,.66-.67.67.67,0,0,0-.66.67" transform="translate(0 0)"/><path class="cls-52" d="M15.2,7.1a.67.67,0,1,1,.66.66.67.67,0,0,1-.66-.66h0a.68.68,0,1,0,.67-.67.67.67,0,0,0-.67.67" transform="translate(0 0)"/><path class="cls-53" d="M15.18,7.1a.67.67,0,1,1,.67.67.67.67,0,0,1-.67-.67h0a.68.68,0,0,0,1.36,0,.68.68,0,1,0-1.36,0" transform="translate(0 0)"/><path class="cls-54" d="M15.18,7.1a.68.68,0,1,1,.68.68.68.68,0,0,1-.68-.68h0a.69.69,0,1,0,.69-.69.69.69,0,0,0-.69.69" transform="translate(0 0)"/><path class="cls-55" d="M15.16,7.1a.69.69,0,1,1,.69.69.69.69,0,0,1-.69-.69h0a.7.7,0,1,0,.69-.7.7.7,0,0,0-.69.7" transform="translate(0 0)"/><path class="cls-55" d="M15.15,7.1a.7.7,0,1,1,.7.7.7.7,0,0,1-.7-.7h0a.7.7,0,0,0,.7.7.7.7,0,0,0,.71-.7.71.71,0,0,0-.71-.71.7.7,0,0,0-.7.71" transform="translate(0 0)"/><path class="cls-56" d="M15.15,7.1a.7.7,0,0,1,.7-.71.71.71,0,0,1,.71.71.7.7,0,0,1-.71.7.7.7,0,0,1-.7-.7h0a.72.72,0,1,0,.71-.72.71.71,0,0,0-.71.72" transform="translate(0 0)"/><path class="cls-57" d="M15.14,7.1a.72.72,0,1,1,.71.71.71.71,0,0,1-.71-.71h0a.72.72,0,0,0,.72.72.73.73,0,0,0,.73-.72.73.73,0,0,0-.73-.73.73.73,0,0,0-.72.73" transform="translate(0 0)"/><path class="cls-58" d="M15.13,7.1a.73.73,0,0,1,.72-.73.73.73,0,0,1,.73.73.73.73,0,0,1-.73.72.72.72,0,0,1-.72-.72h0a.74.74,0,1,0,.73-.74.73.73,0,0,0-.73.74" transform="translate(0 0)"/><path class="cls-59" d="M15.12,7.1a.73.73,0,1,1,.73.73.73.73,0,0,1-.73-.73h0a.74.74,0,0,0,.74.74.74.74,0,1,0,0-1.48.74.74,0,0,0-.74.74" transform="translate(0 0)"/><path class="cls-60" d="M15.12,7.1a.74.74,0,1,1,.74.74.74.74,0,0,1-.74-.74h0a.75.75,0,0,0,1.5,0,.75.75,0,1,0-1.5,0" transform="translate(0 0)"/><path class="cls-61" d="M15.1,7.1a.75.75,0,1,1,.75.75.75.75,0,0,1-.75-.75h0a.76.76,0,1,0,.75-.76.76.76,0,0,0-.75.76" transform="translate(0 0)"/><path class="cls-62" d="M15.1,7.1a.76.76,0,1,1,.76.76.76.76,0,0,1-.76-.76h0a.77.77,0,1,0,.76-.77.76.76,0,0,0-.76.77" transform="translate(0 0)"/><path class="cls-63" d="M15.08,7.1a.77.77,0,1,1,.77.77.77.77,0,0,1-.77-.77h0a.78.78,0,0,0,1.55,0,.78.78,0,1,0-1.55,0" transform="translate(0 0)"/><path class="cls-64" d="M15.08,7.1a.77.77,0,0,1,.77-.78.78.78,0,0,1,.78.78.77.77,0,0,1-.78.77.76.76,0,0,1-.77-.77h0a.79.79,0,1,0,.78-.79.78.78,0,0,0-.78.79" transform="translate(0 0)"/><path class="cls-65" d="M15.07,7.1a.79.79,0,1,1,.78.78.78.78,0,0,1-.78-.78h0a.8.8,0,0,0,1.59,0,.8.8,0,1,0-1.59,0" transform="translate(0 0)"/><path class="cls-66" d="M15.06,7.1a.79.79,0,0,1,.79-.8.8.8,0,0,1,.8.8.79.79,0,0,1-.8.79.79.79,0,0,1-.79-.79h0a.81.81,0,1,0,.8-.8.8.8,0,0,0-.8.8" transform="translate(0 0)"/><path class="cls-67" d="M15.05,7.1a.8.8,0,1,1,.8.8.8.8,0,0,1-.8-.8h0a.81.81,0,0,0,1.62,0A.81.81,0,0,0,15,7.1" transform="translate(0 0)"/><path class="cls-68" d="M15,7.1a.81.81,0,1,1,.81.81A.81.81,0,0,1,15,7.1h0a.82.82,0,1,0,.82-.82A.82.82,0,0,0,15,7.1" transform="translate(0 0)"/><path class="cls-69" d="M15,7.1a.82.82,0,1,1,.82.82A.82.82,0,0,1,15,7.1h0a.83.83,0,1,0,.82-.83A.83.83,0,0,0,15,7.1" transform="translate(0 0)"/><path class="cls-70" d="M15,7.1a.83.83,0,1,1,.83.83A.83.83,0,0,1,15,7.1h0a.84.84,0,0,0,1.67,0A.84.84,0,1,0,15,7.1" transform="translate(0 0)"/><path class="cls-71" d="M15,7.1a.84.84,0,0,1,.83-.84.85.85,0,0,1,.84.84.84.84,0,0,1-.84.83A.83.83,0,0,1,15,7.1h0a.85.85,0,1,0,.84-.85A.85.85,0,0,0,15,7.1" transform="translate(0 0)"/><path class="cls-72" d="M15,7.1a.85.85,0,1,1,.84.84A.85.85,0,0,1,15,7.1h0a.85.85,0,0,0,.85.85A.86.86,0,1,0,15,7.1" transform="translate(0 0)"/><path class="cls-72" d="M15,7.1a.86.86,0,1,1,.85.85A.85.85,0,0,1,15,7.1h0a.87.87,0,1,0,.86-.86A.87.87,0,0,0,15,7.1" transform="translate(0 0)"/><path class="cls-73" d="M15,7.1a.86.86,0,1,1,.86.86A.86.86,0,0,1,15,7.1h0a.87.87,0,1,0,.87-.87A.87.87,0,0,0,15,7.1" transform="translate(0 0)"/><path class="cls-74" d="M15,7.1a.87.87,0,1,1,.87.87A.87.87,0,0,1,15,7.1h0a.88.88,0,1,0,1.76,0A.88.88,0,0,0,15,7.1" transform="translate(0 0)"/><path class="cls-75" d="M15,7.1a.88.88,0,1,1,.88.88A.88.88,0,0,1,15,7.1h0a.89.89,0,1,0,.88-.89A.88.88,0,0,0,15,7.1" transform="translate(0 0)"/><path class="cls-76" d="M15,7.1a.89.89,0,1,1,.89.89A.89.89,0,0,1,15,7.1h0a.9.9,0,1,0,.89-.9.89.89,0,0,0-.89.9" transform="translate(0 0)"/><path class="cls-77" d="M15,7.1a.9.9,0,1,1,.89.89A.89.89,0,0,1,15,7.1h0a.91.91,0,0,0,1.81,0A.91.91,0,1,0,15,7.1" transform="translate(0 0)"/><path class="cls-78" d="M15,7.1a.91.91,0,1,1,.9.9.9.9,0,0,1-.9-.9h0a.92.92,0,1,0,.91-.92.91.91,0,0,0-.91.92" transform="translate(0 0)"/><path class="cls-79" d="M15,7.1a.92.92,0,1,1,.91.91A.92.92,0,0,1,15,7.1h0a.93.93,0,1,0,.92-.92.92.92,0,0,0-.92.92" transform="translate(0 0)"/><path class="cls-80" d="M14.93,7.1a.92.92,0,1,1,.92.92.92.92,0,0,1-.92-.92h0a.93.93,0,0,0,1.86,0,.93.93,0,1,0-1.86,0" transform="translate(0 0)"/><path class="cls-80" d="M14.92,7.1a.93.93,0,1,1,.93.93.93.93,0,0,1-.93-.93h0a.94.94,0,1,0,.94-.94.95.95,0,0,0-.94.94" transform="translate(0 0)"/><path class="cls-81" d="M14.91,7.1a.94.94,0,1,1,.94.94.94.94,0,0,1-.94-.94h0a.95.95,0,1,0,.94-.95.95.95,0,0,0-.94.95" transform="translate(0 0)"/><path class="cls-82" d="M14.9,7.1a1,1,0,1,1,.95,1,.95.95,0,0,1-.95-1h0a1,1,0,0,0,1.91,0,1,1,0,1,0-1.91,0" transform="translate(0 0)"/><path class="cls-83" d="M14.9,7.1a1,1,0,1,1,.95,1,1,1,0,0,1-.95-1h0a1,1,0,1,0,1-1,1,1,0,0,0-1,1" transform="translate(0 0)"/><path class="cls-84" d="M14.89,7.1a1,1,0,1,1,1,1,1,1,0,0,1-1-1h0a1,1,0,0,0,1.95,0,1,1,0,1,0-1.95,0" transform="translate(0 0)"/><path class="cls-85" d="M14.89,7.1a1,1,0,1,1,1,1,1,1,0,0,1-1-1h0a1,1,0,0,0,2,0,1,1,0,1,0-2,0" transform="translate(0 0)"/><path class="cls-86" d="M14.87,7.1a1,1,0,1,1,1,1,1,1,0,0,1-1-1h0a1,1,0,1,0,1-1,1,1,0,0,0-1,1" transform="translate(0 0)"/><path class="cls-87" d="M14.87,7.1a1,1,0,1,1,1,1,1,1,0,0,1-1-1h0a1,1,0,1,0,1-1,1,1,0,0,0-1,1" transform="translate(0 0)"/><path class="cls-88" d="M14.85,7.1a1,1,0,1,1,1,1,1,1,0,0,1-1-1h0a1,1,0,1,0,1-1,1,1,0,0,0-1,1" transform="translate(0 0)"/><path class="cls-89" d="M14.84,7.1a1,1,0,1,1,1,1,1,1,0,0,1-1-1h0a1,1,0,0,0,2,0,1,1,0,1,0-2,0" transform="translate(0 0)"/><path class="cls-90" d="M14.83,7.1a1,1,0,1,1,1,1,1,1,0,0,1-1-1h0a1,1,0,1,0,1-1,1,1,0,0,0-1,1" transform="translate(0 0)"/><path class="cls-90" d="M14.83,7.1a1,1,0,1,1,1,1,1,1,0,0,1-1-1h0a1,1,0,0,0,2.07,0,1,1,0,1,0-2.07,0" transform="translate(0 0)"/><path class="cls-91" d="M14.82,7.1a1,1,0,1,1,1,1,1,1,0,0,1-1-1h0a1,1,0,1,0,1-1,1,1,0,0,0-1,1" transform="translate(0 0)"/><path class="cls-92" d="M14.81,7.1a1,1,0,1,1,1,1,1,1,0,0,1-1-1h0a1.06,1.06,0,1,0,1-1,1,1,0,0,0-1,1" transform="translate(0 0)"/><path class="cls-93" d="M14.81,7.1a1,1,0,1,1,1,1.05,1,1,0,0,1-1-1.05h0a1.06,1.06,0,0,0,2.12,0,1.06,1.06,0,0,0-2.12,0" transform="translate(0 0)"/><path class="cls-94" d="M14.79,7.1a1.06,1.06,0,1,1,1.06,1.06A1.06,1.06,0,0,1,14.79,7.1h0A1.07,1.07,0,1,0,15.85,6,1.07,1.07,0,0,0,14.78,7.1" transform="translate(0 0)"/><path class="cls-95" d="M14.78,7.1a1.07,1.07,0,1,1,1.07,1.07A1.07,1.07,0,0,1,14.78,7.1h0A1.08,1.08,0,1,0,15.85,6,1.08,1.08,0,0,0,14.78,7.1" transform="translate(0 0)"/><path class="cls-96" d="M14.77,7.1a1.08,1.08,0,1,1,1.08,1.08A1.08,1.08,0,0,1,14.77,7.1h0a1.09,1.09,0,0,0,2.17,0,1.09,1.09,0,1,0-2.17,0" transform="translate(0 0)"/><path class="cls-97" d="M14.77,7.1a1.09,1.09,0,1,1,1.08,1.08A1.08,1.08,0,0,1,14.77,7.1h0A1.1,1.1,0,1,0,15.85,6a1.09,1.09,0,0,0-1.09,1.1" transform="translate(0 0)"/><path class="cls-98" d="M14.76,7.1a1.1,1.1,0,1,1,1.09,1.09A1.09,1.09,0,0,1,14.76,7.1h0A1.11,1.11,0,0,0,17,7.1a1.11,1.11,0,1,0-2.21,0" transform="translate(0 0)"/><path class="cls-99" d="M14.75,7.1a1.11,1.11,0,1,1,1.1,1.1,1.11,1.11,0,0,1-1.1-1.1h0A1.12,1.12,0,1,0,15.85,6,1.11,1.11,0,0,0,14.74,7.1" transform="translate(0 0)"/><path class="cls-100" d="M14.74,7.1a1.11,1.11,0,1,1,1.11,1.11A1.11,1.11,0,0,1,14.74,7.1h0A1.12,1.12,0,1,0,15.85,6,1.12,1.12,0,0,0,14.73,7.1" transform="translate(0 0)"/><path class="cls-100" d="M14.73,7.1a1.12,1.12,0,1,1,1.12,1.12A1.12,1.12,0,0,1,14.73,7.1h0A1.13,1.13,0,0,0,17,7.1a1.13,1.13,0,0,0-2.26,0" transform="translate(0 0)"/><path class="cls-101" d="M14.73,7.1a1.13,1.13,0,1,1,1.13,1.13A1.13,1.13,0,0,1,14.73,7.1h0A1.14,1.14,0,1,0,15.85,6,1.14,1.14,0,0,0,14.72,7.1" transform="translate(0 0)"/><path class="cls-101" d="M14.71,7.1a1.14,1.14,0,1,1,1.14,1.14A1.14,1.14,0,0,1,14.71,7.1h0A1.15,1.15,0,1,0,15.85,6,1.14,1.14,0,0,0,14.71,7.1" transform="translate(0 0)"/><path class="cls-102" d="M14.71,7.1a1.15,1.15,0,1,1,1.14,1.14A1.14,1.14,0,0,1,14.71,7.1h0a1.16,1.16,0,1,0,1.15-1.16A1.15,1.15,0,0,0,14.7,7.1" transform="translate(0 0)"/><path class="cls-103" d="M14.7,7.1a1.16,1.16,0,1,1,1.15,1.15A1.15,1.15,0,0,1,14.7,7.1h0a1.17,1.17,0,1,0,1.16-1.17A1.16,1.16,0,0,0,14.69,7.1" transform="translate(0 0)"/><path class="cls-103" d="M14.69,7.1a1.17,1.17,0,1,1,1.16,1.16A1.17,1.17,0,0,1,14.69,7.1h0a1.18,1.18,0,1,0,1.17-1.17A1.18,1.18,0,0,0,14.68,7.1" transform="translate(0 0)"/><path class="cls-104" d="M14.68,7.1a1.17,1.17,0,1,1,1.17,1.17A1.17,1.17,0,0,1,14.68,7.1h0a1.18,1.18,0,1,0,1.18-1.18A1.18,1.18,0,0,0,14.67,7.1" transform="translate(0 0)"/><path class="cls-105" d="M14.67,7.1a1.18,1.18,0,1,1,1.18,1.18A1.18,1.18,0,0,1,14.67,7.1h0A1.19,1.19,0,0,0,17,7.1a1.19,1.19,0,0,0-2.38,0" transform="translate(0 0)"/><path class="cls-106" d="M14.67,7.1a1.19,1.19,0,1,1,1.19,1.19A1.19,1.19,0,0,1,14.67,7.1h0a1.2,1.2,0,1,0,1.19-1.2,1.19,1.19,0,0,0-1.19,1.2" transform="translate(0 0)"/><path class="cls-107" d="M14.65,7.1a1.2,1.2,0,1,1,1.2,1.2,1.2,1.2,0,0,1-1.2-1.2h0a1.21,1.21,0,1,0,1.2-1.21,1.2,1.2,0,0,0-1.2,1.21" transform="translate(0 0)"/><path class="cls-108" d="M14.65,7.1a1.21,1.21,0,1,1,1.21,1.2,1.21,1.21,0,0,1-1.21-1.2h0a1.22,1.22,0,0,0,2.43,0,1.22,1.22,0,1,0-2.43,0" transform="translate(0 0)"/><path class="cls-109" d="M14.64,7.1a1.22,1.22,0,1,1,1.21,1.21A1.22,1.22,0,0,1,14.64,7.1h0a1.23,1.23,0,1,0,1.22-1.23A1.22,1.22,0,0,0,14.63,7.1" transform="translate(0 0)"/><path class="cls-110" d="M14.63,7.1a1.23,1.23,0,1,1,1.22,1.22A1.23,1.23,0,0,1,14.63,7.1h0a1.24,1.24,0,0,0,2.47,0,1.24,1.24,0,1,0-2.47,0" transform="translate(0 0)"/><path class="cls-111" d="M14.62,7.1a1.23,1.23,0,1,1,1.23,1.23A1.24,1.24,0,0,1,14.62,7.1h0a1.25,1.25,0,1,0,1.24-1.24A1.25,1.25,0,0,0,14.61,7.1" transform="translate(0 0)"/><path class="cls-112" d="M14.61,7.1a1.24,1.24,0,1,1,1.24,1.24A1.24,1.24,0,0,1,14.61,7.1h0a1.25,1.25,0,1,0,1.25-1.25A1.25,1.25,0,0,0,14.6,7.1" transform="translate(0 0)"/><path class="cls-112" d="M14.6,7.1a1.25,1.25,0,1,1,1.25,1.25A1.25,1.25,0,0,1,14.6,7.1h0a1.26,1.26,0,1,0,1.25-1.26A1.26,1.26,0,0,0,14.6,7.1" transform="translate(0 0)"/><path class="cls-113" d="M14.59,7.1a1.26,1.26,0,1,1,1.26,1.26A1.26,1.26,0,0,1,14.59,7.1h0a1.27,1.27,0,0,0,2.53,0,1.27,1.27,0,1,0-2.53,0" transform="translate(0 0)"/><path class="cls-114" d="M14.59,7.1a1.27,1.27,0,1,1,1.27,1.27A1.27,1.27,0,0,1,14.59,7.1h0a1.28,1.28,0,1,0,1.27-1.28A1.27,1.27,0,0,0,14.58,7.1" transform="translate(0 0)"/><path class="cls-115" d="M14.58,7.1a1.28,1.28,0,1,1,1.27,1.27A1.27,1.27,0,0,1,14.58,7.1h0a1.29,1.29,0,0,0,2.57,0,1.29,1.29,0,1,0-2.57,0" transform="translate(0 0)"/><path class="cls-116" d="M14.58,7.1a1.29,1.29,0,1,1,1.28,1.28A1.28,1.28,0,0,1,14.58,7.1h0a1.3,1.3,0,1,0,1.29-1.3,1.29,1.29,0,0,0-1.29,1.3" transform="translate(0 0)"/><path class="cls-117" d="M14.56,7.1a1.3,1.3,0,1,1,1.29,1.29A1.3,1.3,0,0,1,14.56,7.1h0a1.31,1.31,0,1,0,1.3-1.3,1.3,1.3,0,0,0-1.3,1.3" transform="translate(0 0)"/><path class="cls-118" d="M14.55,7.1a1.3,1.3,0,1,1,1.3,1.3,1.3,1.3,0,0,1-1.3-1.3h0a1.31,1.31,0,1,0,1.31-1.31A1.31,1.31,0,0,0,14.54,7.1" transform="translate(0 0)"/><path class="cls-119" d="M14.54,7.1a1.31,1.31,0,1,1,1.31,1.31A1.31,1.31,0,0,1,14.54,7.1h0a1.32,1.32,0,1,0,1.32-1.32A1.33,1.33,0,0,0,14.53,7.1" transform="translate(0 0)"/><path class="cls-120" d="M14.53,7.1a1.32,1.32,0,1,1,1.32,1.32A1.32,1.32,0,0,1,14.53,7.1h0a1.33,1.33,0,1,0,1.32-1.33A1.33,1.33,0,0,0,14.53,7.1" transform="translate(0 0)"/><path class="cls-121" d="M14.52,7.1a1.33,1.33,0,1,1,1.33,1.33A1.33,1.33,0,0,1,14.52,7.1h0a1.34,1.34,0,1,0,1.33-1.34A1.33,1.33,0,0,0,14.52,7.1" transform="translate(0 0)"/><path class="cls-122" d="M14.52,7.1a1.34,1.34,0,1,1,1.33,1.33A1.33,1.33,0,0,1,14.52,7.1h0a1.35,1.35,0,1,0,1.34-1.35A1.34,1.34,0,0,0,14.51,7.1" transform="translate(0 0)"/><path class="cls-123" d="M14.52,7.1a1.35,1.35,0,1,1,1.34,1.34A1.35,1.35,0,0,1,14.52,7.1h0a1.36,1.36,0,1,0,1.35-1.36A1.36,1.36,0,0,0,14.5,7.1" transform="translate(0 0)"/><path class="cls-124" d="M14.5,7.1a1.36,1.36,0,1,1,1.35,1.35A1.35,1.35,0,0,1,14.5,7.1h0a1.37,1.37,0,1,0,1.36-1.36A1.36,1.36,0,0,0,14.49,7.1" transform="translate(0 0)"/><path class="cls-125" d="M14.5,7.1a1.36,1.36,0,1,1,1.36,1.36A1.36,1.36,0,0,1,14.5,7.1h0a1.37,1.37,0,1,0,1.37-1.37A1.38,1.38,0,0,0,14.48,7.1" transform="translate(0 0)"/><path class="cls-126" d="M14.48,7.1a1.37,1.37,0,1,1,1.37,1.37A1.37,1.37,0,0,1,14.48,7.1h0a1.38,1.38,0,1,0,1.38-1.38A1.38,1.38,0,0,0,14.47,7.1" transform="translate(0 0)"/><path class="cls-127" d="M14.47,7.1a1.38,1.38,0,1,1,1.38,1.38A1.38,1.38,0,0,1,14.47,7.1h0a1.39,1.39,0,1,0,1.38-1.39A1.39,1.39,0,0,0,14.47,7.1" transform="translate(0 0)"/><path class="cls-128" d="M14.46,7.1a1.39,1.39,0,1,1,1.39,1.39A1.39,1.39,0,0,1,14.46,7.1h0a1.4,1.4,0,0,0,2.79,0,1.4,1.4,0,1,0-2.79,0" transform="translate(0 0)"/><path class="cls-129" d="M14.46,7.1a1.4,1.4,0,1,1,1.39,1.39A1.4,1.4,0,0,1,14.46,7.1h0a1.41,1.41,0,1,0,1.4-1.41,1.4,1.4,0,0,0-1.4,1.41" transform="translate(0 0)"/><path class="cls-130" d="M14.45,7.1a1.41,1.41,0,1,1,1.4,1.4,1.41,1.41,0,0,1-1.4-1.4h0a1.42,1.42,0,0,0,2.83,0,1.42,1.42,0,1,0-2.83,0" transform="translate(0 0)"/><path class="cls-131" d="M14.44,7.1a1.42,1.42,0,1,1,1.41,1.41A1.42,1.42,0,0,1,14.44,7.1h0a1.43,1.43,0,1,0,1.42-1.42A1.43,1.43,0,0,0,14.43,7.1" transform="translate(0 0)"/><path class="cls-132" d="M14.44,7.1a1.42,1.42,0,1,1,1.42,1.42A1.42,1.42,0,0,1,14.44,7.1h0a1.43,1.43,0,1,0,1.43-1.43A1.43,1.43,0,0,0,14.42,7.1" transform="translate(0 0)"/><path class="cls-133" d="M14.42,7.1a1.43,1.43,0,1,1,1.43,1.43A1.43,1.43,0,0,1,14.42,7.1h0a1.44,1.44,0,1,0,1.44-1.44A1.45,1.45,0,0,0,14.41,7.1" transform="translate(0 0)"/><path class="cls-134" d="M14.42,7.1a1.44,1.44,0,1,1,1.44,1.44A1.44,1.44,0,0,1,14.42,7.1h0a1.45,1.45,0,1,0,1.44-1.45A1.44,1.44,0,0,0,14.41,7.1" transform="translate(0 0)"/><path class="cls-135" d="M14.4,7.1a1.45,1.45,0,1,1,1.45,1.45A1.45,1.45,0,0,1,14.4,7.1h0a1.46,1.46,0,1,0,1.45-1.46A1.45,1.45,0,0,0,14.4,7.1" transform="translate(0 0)"/><path class="cls-136" d="M14.4,7.1a1.46,1.46,0,1,1,1.45,1.45A1.45,1.45,0,0,1,14.4,7.1h0a1.47,1.47,0,0,0,2.93,0,1.47,1.47,0,1,0-2.93,0" transform="translate(0 0)"/><path class="cls-137" d="M14.39,7.1a1.47,1.47,0,1,1,1.46,1.46A1.46,1.46,0,0,1,14.39,7.1h0a1.48,1.48,0,1,0,1.47-1.48A1.47,1.47,0,0,0,14.38,7.1" transform="translate(0 0)"/><path class="cls-138" d="M14.38,7.1a1.48,1.48,0,1,1,1.47,1.47A1.47,1.47,0,0,1,14.38,7.1h0a1.49,1.49,0,1,0,1.48-1.49A1.48,1.48,0,0,0,14.37,7.1" transform="translate(0 0)"/><path class="cls-139" d="M14.37,7.1a1.48,1.48,0,1,1,1.48,1.48A1.49,1.49,0,0,1,14.37,7.1h0a1.5,1.5,0,1,0,1.49-1.49A1.49,1.49,0,0,0,14.36,7.1" transform="translate(0 0)"/><path class="cls-140" d="M14.36,7.1a1.49,1.49,0,1,1,1.49,1.49A1.49,1.49,0,0,1,14.36,7.1h0a1.5,1.5,0,1,0,1.5-1.5,1.5,1.5,0,0,0-1.5,1.5" transform="translate(0 0)"/><path class="cls-141" d="M14.36,7.1a1.5,1.5,0,1,1,1.5,1.5,1.5,1.5,0,0,1-1.5-1.5h0a1.51,1.51,0,1,0,1.5-1.51,1.51,1.51,0,0,0-1.5,1.51" transform="translate(0 0)"/><path class="cls-142" d="M14.34,7.1a1.51,1.51,0,1,1,1.51,1.51A1.52,1.52,0,0,1,14.34,7.1h0a1.52,1.52,0,1,0,1.51-1.52A1.51,1.51,0,0,0,14.34,7.1" transform="translate(0 0)"/><path class="cls-143" d="M14.34,7.1a1.52,1.52,0,1,1,1.52,1.52A1.52,1.52,0,0,1,14.34,7.1h0a1.53,1.53,0,1,0,1.52-1.53A1.52,1.52,0,0,0,14.33,7.1" transform="translate(0 0)"/><path class="cls-144" d="M14.33,7.1a1.53,1.53,0,1,1,1.52,1.52A1.53,1.53,0,0,1,14.33,7.1h0a1.54,1.54,0,1,0,1.53-1.54A1.54,1.54,0,0,0,14.32,7.1" transform="translate(0 0)"/><path class="cls-145" d="M14.32,7.1a1.54,1.54,0,1,1,1.53,1.53A1.53,1.53,0,0,1,14.32,7.1h0a1.55,1.55,0,1,0,1.54-1.55A1.54,1.54,0,0,0,14.31,7.1" transform="translate(0 0)"/><path class="cls-146" d="M14.31,7.1a1.55,1.55,0,1,1,1.54,1.54A1.55,1.55,0,0,1,14.31,7.1h0a1.56,1.56,0,1,0,1.55-1.55A1.56,1.56,0,0,0,14.3,7.1" transform="translate(0 0)"/><path class="cls-147" d="M14.3,7.1a1.55,1.55,0,1,1,1.55,1.55A1.55,1.55,0,0,1,14.3,7.1h0a1.56,1.56,0,1,0,1.56-1.56A1.56,1.56,0,0,0,14.29,7.1" transform="translate(0 0)"/><path class="cls-148" d="M14.29,7.1a1.56,1.56,0,1,1,1.56,1.56A1.56,1.56,0,0,1,14.29,7.1h0a1.57,1.57,0,1,0,1.57-1.57A1.58,1.58,0,0,0,14.28,7.1" transform="translate(0 0)"/><path class="cls-149" d="M14.28,7.1a1.57,1.57,0,1,1,1.57,1.57A1.57,1.57,0,0,1,14.28,7.1h0a1.58,1.58,0,1,0,1.57-1.58A1.57,1.57,0,0,0,14.28,7.1" transform="translate(0 0)"/><path class="cls-150" d="M14.28,7.1a1.58,1.58,0,1,1,1.58,1.58A1.58,1.58,0,0,1,14.28,7.1h0a1.59,1.59,0,1,0,1.58-1.59A1.58,1.58,0,0,0,14.27,7.1" transform="translate(0 0)"/><path class="cls-151" d="M14.27,7.1a1.59,1.59,0,1,1,1.58,1.58A1.59,1.59,0,0,1,14.27,7.1h0a1.6,1.6,0,0,0,3.19,0,1.6,1.6,0,1,0-3.19,0" transform="translate(0 0)"/><path class="cls-152" d="M14.26,7.1a1.6,1.6,0,1,1,1.59,1.59A1.6,1.6,0,0,1,14.26,7.1h0a1.61,1.61,0,1,0,1.6-1.61,1.6,1.6,0,0,0-1.6,1.61" transform="translate(0 0)"/><path class="cls-153" d="M14.25,7.1a1.61,1.61,0,1,1,1.6,1.6,1.61,1.61,0,0,1-1.6-1.6h0a1.62,1.62,0,1,0,1.61-1.61A1.61,1.61,0,0,0,14.24,7.1" transform="translate(0 0)"/><path class="cls-153" d="M14.24,7.1a1.61,1.61,0,1,1,1.61,1.61A1.61,1.61,0,0,1,14.24,7.1h0a1.62,1.62,0,1,0,1.62-1.62A1.63,1.63,0,0,0,14.23,7.1" transform="translate(0 0)"/><path class="cls-154" d="M14.23,7.1a1.62,1.62,0,1,1,1.62,1.62A1.62,1.62,0,0,1,14.23,7.1h0a1.63,1.63,0,1,0,1.63-1.63A1.63,1.63,0,0,0,14.22,7.1" transform="translate(0 0)"/><path class="cls-155" d="M14.22,7.1a1.63,1.63,0,1,1,1.63,1.63A1.63,1.63,0,0,1,14.22,7.1h0a1.64,1.64,0,1,0,1.63-1.64A1.64,1.64,0,0,0,14.22,7.1" transform="translate(0 0)"/><path class="cls-156" d="M14.21,7.1a1.64,1.64,0,1,1,1.64,1.64A1.64,1.64,0,0,1,14.21,7.1h0a1.65,1.65,0,0,0,3.29,0,1.65,1.65,0,1,0-3.29,0" transform="translate(0 0)"/><path class="cls-157" d="M14.21,7.1a1.65,1.65,0,1,1,1.64,1.64A1.64,1.64,0,0,1,14.21,7.1h0a1.66,1.66,0,1,0,1.65-1.66A1.65,1.65,0,0,0,14.2,7.1" transform="translate(0 0)"/><path class="cls-158" d="M14.21,7.09a1.66,1.66,0,1,1,1.65,1.65,1.65,1.65,0,0,1-1.65-1.65h0a1.67,1.67,0,1,0,1.66-1.67A1.66,1.66,0,0,0,14.19,7.1" transform="translate(0 0)"/><path class="cls-159" d="M14.19,7.1a1.67,1.67,0,1,1,1.66,1.66A1.66,1.66,0,0,1,14.19,7.1h0a1.68,1.68,0,1,0,1.67-1.67A1.67,1.67,0,0,0,14.18,7.1" transform="translate(0 0)"/><path class="cls-160" d="M14.18,7.1a1.67,1.67,0,1,1,1.67,1.67A1.67,1.67,0,0,1,14.18,7.1h0a1.68,1.68,0,1,0,1.68-1.68A1.68,1.68,0,0,0,14.17,7.1" transform="translate(0 0)"/><path class="cls-161" d="M14.17,7.1a1.68,1.68,0,1,1,1.68,1.68A1.68,1.68,0,0,1,14.17,7.1h0a1.69,1.69,0,1,0,1.69-1.69A1.69,1.69,0,0,0,14.16,7.1" transform="translate(0 0)"/><path class="cls-162" d="M14.16,7.1a1.69,1.69,0,1,1,1.69,1.69A1.69,1.69,0,0,1,14.16,7.1h0a1.7,1.7,0,1,0,1.69-1.7,1.7,1.7,0,0,0-1.69,1.7" transform="translate(0 0)"/><path class="cls-163" d="M14.15,7.1a1.7,1.7,0,1,1,1.7,1.7,1.7,1.7,0,0,1-1.7-1.7h0a1.71,1.71,0,1,0,1.7-1.71,1.7,1.7,0,0,0-1.7,1.71" transform="translate(0 0)"/><path class="cls-164" d="M14.15,7.1a1.71,1.71,0,1,1,1.7,1.7,1.71,1.71,0,0,1-1.7-1.7h0a1.72,1.72,0,1,0,1.71-1.72A1.72,1.72,0,0,0,14.14,7.1" transform="translate(0 0)"/><path class="cls-165" d="M14.15,7.1a1.72,1.72,0,1,1,1.71,1.71A1.71,1.71,0,0,1,14.15,7.1h0a1.73,1.73,0,1,0,1.72-1.73A1.72,1.72,0,0,0,14.13,7.1" transform="translate(0 0)"/><path class="cls-166" d="M14.13,7.1a1.73,1.73,0,1,1,1.72,1.72A1.73,1.73,0,0,1,14.13,7.1h0a1.74,1.74,0,1,0,1.73-1.74A1.74,1.74,0,0,0,14.12,7.1" transform="translate(0 0)"/><path class="cls-167" d="M14.13,7.1a1.73,1.73,0,1,1,1.73,1.73A1.74,1.74,0,0,1,14.13,7.1h0a1.75,1.75,0,1,0,1.74-1.74A1.74,1.74,0,0,0,14.11,7.1" transform="translate(0 0)"/><path class="cls-168" d="M14.11,7.1a1.74,1.74,0,1,1,1.74,1.74A1.74,1.74,0,0,1,14.11,7.1h0a1.75,1.75,0,1,0,1.75-1.75A1.76,1.76,0,0,0,14.1,7.1" transform="translate(0 0)"/><path class="cls-169" d="M14.1,7.1a1.75,1.75,0,1,1,1.75,1.75A1.75,1.75,0,0,1,14.1,7.1h0a1.76,1.76,0,1,0,1.75-1.76A1.75,1.75,0,0,0,14.1,7.1" transform="translate(0 0)"/><path class="cls-170" d="M14.09,7.1a1.76,1.76,0,1,1,1.76,1.76A1.76,1.76,0,0,1,14.09,7.1h0a1.77,1.77,0,1,0,1.76-1.77A1.76,1.76,0,0,0,14.09,7.1" transform="translate(0 0)"/><path class="cls-171" d="M14.08,7.1a1.77,1.77,0,1,1,1.77,1.77A1.77,1.77,0,0,1,14.08,7.1h0a1.78,1.78,0,1,0,1.77-1.78A1.77,1.77,0,0,0,14.08,7.1" transform="translate(0 0)"/><path class="cls-172" d="M14.08,7.1a1.78,1.78,0,1,1,1.77,1.77A1.78,1.78,0,0,1,14.08,7.1h0a1.79,1.79,0,1,0,1.78-1.79A1.78,1.78,0,0,0,14.07,7.1" transform="translate(0 0)"/><path class="cls-173" d="M14.07,7.1a1.79,1.79,0,1,1,1.78,1.78A1.79,1.79,0,0,1,14.07,7.1h0a1.8,1.8,0,1,0,1.79-1.8,1.79,1.79,0,0,0-1.79,1.8" transform="translate(0 0)"/><path class="cls-174" d="M14.07,7.1a1.79,1.79,0,1,1,1.79,1.79A1.8,1.8,0,0,1,14.07,7.1h0a1.81,1.81,0,1,0,1.8-1.8,1.81,1.81,0,0,0-1.8,1.8" transform="translate(0 0)"/><path class="cls-175" d="M14.05,7.1a1.8,1.8,0,1,1,1.8,1.8,1.8,1.8,0,0,1-1.8-1.8h0a1.81,1.81,0,1,0,1.81-1.81A1.81,1.81,0,0,0,14,7.1" transform="translate(0 0)"/><path class="cls-176" d="M14.05,7.1a1.81,1.81,0,1,1,1.81,1.81A1.81,1.81,0,0,1,14.05,7.1h0a1.82,1.82,0,1,0,1.82-1.82A1.83,1.83,0,0,0,14,7.1" transform="translate(0 0)"/><path class="cls-177" d="M14,7.1a1.82,1.82,0,1,1,1.82,1.82A1.82,1.82,0,0,1,14,7.1h0a1.83,1.83,0,1,0,1.82-1.83A1.82,1.82,0,0,0,14,7.1" transform="translate(0 0)"/><path class="cls-178" d="M14,7.1a1.83,1.83,0,1,1,1.83,1.83A1.83,1.83,0,0,1,14,7.1h0a1.84,1.84,0,1,0,1.83-1.84A1.83,1.83,0,0,0,14,7.1" transform="translate(0 0)"/><path class="cls-179" d="M14,7.1a1.84,1.84,0,1,1,1.83,1.83A1.83,1.83,0,0,1,14,7.1h0a1.85,1.85,0,1,0,1.84-1.85A1.84,1.84,0,0,0,14,7.1" transform="translate(0 0)"/><path class="cls-180" d="M14,7.1a1.85,1.85,0,1,1,1.84,1.84A1.84,1.84,0,0,1,14,7.1h0a1.86,1.86,0,1,0,1.85-1.86A1.85,1.85,0,0,0,14,7.1" transform="translate(0 0)"/><path class="cls-181" d="M14,7.1A1.86,1.86,0,1,1,15.85,9,1.85,1.85,0,0,1,14,7.1h0a1.87,1.87,0,1,0,1.86-1.86A1.86,1.86,0,0,0,14,7.1" transform="translate(0 0)"/><path class="cls-182" d="M14,7.1A1.86,1.86,0,1,1,15.85,9,1.86,1.86,0,0,1,14,7.1h0a1.87,1.87,0,1,0,1.87-1.87A1.87,1.87,0,0,0,14,7.1" transform="translate(0 0)"/><path class="cls-183" d="M14,7.1A1.87,1.87,0,1,1,15.86,9,1.87,1.87,0,0,1,14,7.1h0a1.88,1.88,0,1,0,1.88-1.88A1.88,1.88,0,0,0,14,7.1" transform="translate(0 0)"/><path class="cls-184" d="M14,7.1A1.88,1.88,0,1,1,15.85,9,1.88,1.88,0,0,1,14,7.1h0a1.89,1.89,0,1,0,1.88-1.89A1.89,1.89,0,0,0,14,7.1" transform="translate(0 0)"/><path class="cls-185" d="M14,7.1A1.89,1.89,0,1,1,15.86,9,1.89,1.89,0,0,1,14,7.1h0a1.9,1.9,0,1,0,1.89-1.9A1.89,1.89,0,0,0,14,7.1" transform="translate(0 0)"/><path class="cls-186" d="M14,7.1A1.9,1.9,0,1,1,15.85,9,1.9,1.9,0,0,1,14,7.1h0a1.91,1.91,0,1,0,1.9-1.91A1.9,1.9,0,0,0,14,7.1" transform="translate(0 0)"/><path class="cls-187" d="M14,7.1A1.91,1.91,0,1,1,15.85,9,1.91,1.91,0,0,1,14,7.1h0a1.92,1.92,0,1,0,1.91-1.92A1.92,1.92,0,0,0,13.94,7.1" transform="translate(0 0)"/><path class="cls-188" d="M13.94,7.1A1.92,1.92,0,1,1,15.85,9,1.92,1.92,0,0,1,13.94,7.1h0a1.93,1.93,0,1,0,1.92-1.92A1.92,1.92,0,0,0,13.93,7.1" transform="translate(0 0)"/><path class="cls-189" d="M13.93,7.1A1.92,1.92,0,1,1,15.85,9,1.92,1.92,0,0,1,13.93,7.1h0a1.93,1.93,0,1,0,1.93-1.93A1.94,1.94,0,0,0,13.92,7.1" transform="translate(0 0)"/><path class="cls-190" d="M13.92,7.1A1.93,1.93,0,1,1,15.85,9,1.93,1.93,0,0,1,13.92,7.1h0a1.94,1.94,0,1,0,1.94-1.94A1.94,1.94,0,0,0,13.91,7.1" transform="translate(0 0)"/><path class="cls-191" d="M13.91,7.1A1.94,1.94,0,1,1,15.85,9,1.94,1.94,0,0,1,13.91,7.1h0a1.95,1.95,0,1,0,1.94-1.95A2,2,0,0,0,13.91,7.1" transform="translate(0 0)"/><path class="cls-192" d="M13.91,7.1a1.95,1.95,0,1,1,1.95,2,2,2,0,0,1-1.95-2h0a2,2,0,1,0,1.95-2,1.95,1.95,0,0,0-1.95,2" transform="translate(0 0)"/><path class="cls-193" d="M13.9,7.1a2,2,0,1,1,1.95,2,2,2,0,0,1-1.95-2h0a2,2,0,1,0,2-2,2,2,0,0,0-2,2" transform="translate(0 0)"/><path class="cls-194" d="M13.9,7.1a2,2,0,1,1,2,2,2,2,0,0,1-2-2h0a2,2,0,1,0,2-2,2,2,0,0,0-2,2" transform="translate(0 0)"/><path class="cls-195" d="M13.88,7.1a2,2,0,1,1,2,2,2,2,0,0,1-2-2h0a2,2,0,1,0,2-2,2,2,0,0,0-2,2" transform="translate(0 0)"/><path class="cls-196" d="M13.87,7.1a2,2,0,1,1,2,2,2,2,0,0,1-2-2h0a2,2,0,1,0,2-2,2,2,0,0,0-2,2" transform="translate(0 0)"/><path class="cls-197" d="M13.86,7.1a2,2,0,1,1,2,2,2,2,0,0,1-2-2h0a2,2,0,1,0,2-2,2,2,0,0,0-2,2" transform="translate(0 0)"/><path class="cls-198" d="M13.85,7.1a2,2,0,1,1,2,2,2,2,0,0,1-2-2h0a2,2,0,1,0,2-2,2,2,0,0,0-2,2" transform="translate(0 0)"/><path class="cls-199" d="M13.84,7.1a2,2,0,1,1,2,2,2,2,0,0,1-2-2h0a2,2,0,1,0,2-2,2,2,0,0,0-2,2" transform="translate(0 0)"/><path class="cls-200" d="M13.83,7.1a2,2,0,1,1,2,2,2,2,0,0,1-2-2h0a2,2,0,1,0,2-2,2,2,0,0,0-2,2" transform="translate(0 0)"/><path class="cls-201" d="M13.84,7.1a2,2,0,1,1,2,2,2,2,0,0,1-2-2h0a2,2,0,1,0,2-2,2,2,0,0,0-2,2" transform="translate(0 0)"/><path class="cls-202" d="M13.82,7.1a2,2,0,1,1,2,2,2,2,0,0,1-2-2h0a2,2,0,1,0,2-2,2,2,0,0,0-2,2.05" transform="translate(0 0)"/><path class="cls-203" d="M13.82,7.1a2,2,0,1,1,2,2,2,2,0,0,1-2-2h0a2.06,2.06,0,1,0,2-2,2.05,2.05,0,0,0-2,2.05" transform="translate(0 0)"/><path class="cls-204" d="M13.8,7.1a2,2,0,1,1,2,2.05,2.05,2.05,0,0,1-2-2.05h0A2.06,2.06,0,1,0,15.85,5,2.06,2.06,0,0,0,13.79,7.1" transform="translate(0 0)"/><path class="cls-205" d="M13.79,7.1a2.06,2.06,0,1,1,2.06,2.06A2.06,2.06,0,0,1,13.79,7.1h0A2.07,2.07,0,1,0,15.85,5,2.07,2.07,0,0,0,13.78,7.1" transform="translate(0 0)"/><path class="cls-206" d="M13.78,7.1a2.07,2.07,0,1,1,2.07,2.07A2.07,2.07,0,0,1,13.78,7.1h0A2.08,2.08,0,1,0,15.85,5,2.08,2.08,0,0,0,13.78,7.1" transform="translate(0 0)"/><path class="cls-207" d="M13.77,7.1a2.08,2.08,0,1,1,2.08,2.08A2.08,2.08,0,0,1,13.77,7.1h0A2.09,2.09,0,1,0,15.85,5,2.08,2.08,0,0,0,13.77,7.1" transform="translate(0 0)"/><path class="cls-208" d="M13.77,7.1a2.09,2.09,0,1,1,2.08,2.08A2.09,2.09,0,0,1,13.77,7.1h0A2.1,2.1,0,1,0,15.85,5a2.1,2.1,0,0,0-2.09,2.1" transform="translate(0 0)"/><path class="cls-209" d="M13.76,7.1a2.1,2.1,0,1,1,2.09,2.09A2.1,2.1,0,0,1,13.76,7.1h0A2.11,2.11,0,1,0,15.85,5a2.1,2.1,0,0,0-2.1,2.11" transform="translate(0 0)"/><path class="cls-210" d="M13.76,7.1a2.11,2.11,0,1,1,2.1,2.1,2.11,2.11,0,0,1-2.1-2.1h0A2.12,2.12,0,1,0,15.85,5,2.12,2.12,0,0,0,13.74,7.1" transform="translate(0 0)"/><path class="cls-211" d="M13.74,7.1a2.11,2.11,0,1,1,2.11,2.11A2.11,2.11,0,0,1,13.74,7.1h0A2.12,2.12,0,1,0,15.85,5,2.12,2.12,0,0,0,13.73,7.1" transform="translate(0 0)"/><path class="cls-212" d="M13.73,7.1a2.12,2.12,0,1,1,2.12,2.12A2.12,2.12,0,0,1,13.73,7.1h0A2.13,2.13,0,1,0,15.85,5,2.14,2.14,0,0,0,13.72,7.1" transform="translate(0 0)"/><path class="cls-213" d="M13.72,7.1a2.13,2.13,0,1,1,2.13,2.13A2.13,2.13,0,0,1,13.72,7.1h0A2.14,2.14,0,1,0,15.85,5,2.13,2.13,0,0,0,13.72,7.1" transform="translate(0 0)"/><path class="cls-214" d="M13.71,7.1a2.14,2.14,0,1,1,2.14,2.14A2.14,2.14,0,0,1,13.71,7.1h0A2.15,2.15,0,1,0,15.85,5,2.14,2.14,0,0,0,13.71,7.1" transform="translate(0 0)"/><path class="cls-214" d="M13.71,7.1a2.15,2.15,0,1,1,2.14,2.14A2.14,2.14,0,0,1,13.71,7.1h0a2.16,2.16,0,1,0,2.15-2.16A2.15,2.15,0,0,0,13.7,7.1" transform="translate(0 0)"/><path class="cls-215" d="M13.7,7.1a2.16,2.16,0,1,1,2.15,2.15A2.16,2.16,0,0,1,13.7,7.1h0a2.17,2.17,0,1,0,2.16-2.17A2.16,2.16,0,0,0,13.69,7.1" transform="translate(0 0)"/><path class="cls-216" d="M13.69,7.1a2.17,2.17,0,1,1,2.16,2.16A2.17,2.17,0,0,1,13.69,7.1h0a2.18,2.18,0,1,0,2.17-2.17A2.17,2.17,0,0,0,13.68,7.1" transform="translate(0 0)"/><path class="cls-217" d="M13.68,7.1a2.17,2.17,0,1,1,2.17,2.17A2.17,2.17,0,0,1,13.68,7.1h0a2.18,2.18,0,1,0,2.18-2.18A2.19,2.19,0,0,0,13.67,7.1" transform="translate(0 0)"/><path class="cls-217" d="M13.68,7.09a2.18,2.18,0,1,1,2.18,2.18,2.18,2.18,0,0,1-2.18-2.18h0a2.19,2.19,0,1,0,2.19-2.19A2.2,2.2,0,0,0,13.66,7.1" transform="translate(0 0)"/><path class="cls-218" d="M13.66,7.1a2.19,2.19,0,1,1,2.19,2.19A2.19,2.19,0,0,1,13.66,7.1h0a2.2,2.2,0,1,0,2.19-2.2,2.2,2.2,0,0,0-2.19,2.2" transform="translate(0 0)"/><path class="cls-219" d="M13.65,7.1a2.2,2.2,0,1,1,2.2,2.2,2.2,2.2,0,0,1-2.2-2.2h0a2.21,2.21,0,1,0,2.2-2.21,2.2,2.2,0,0,0-2.2,2.21" transform="translate(0 0)"/><path class="cls-219" d="M13.64,7.1a2.21,2.21,0,1,0,2.21-2.21A2.2,2.2,0,0,0,13.64,7.1m4.45,2.2H13.62V4.89h4.47V9.3" transform="translate(0 0)"/></g><path class="cls-220" d="M4.12,8.14A1.54,1.54,0,0,1,3,8.48H2.79V5.7H3A1.52,1.52,0,0,1,4.12,6a1.39,1.39,0,0,1,.46,1,1.41,1.41,0,0,1-.46,1.05ZM3.17,5H2v4.2H3.16a2.2,2.2,0,0,0,1.5-.49A2.1,2.1,0,0,0,3.17,5" transform="translate(0 0)"/><polyline class="cls-220" points="5.8 9.19 6.61 9.19 6.61 4.99 5.8 4.99 5.8 9.19"/><path class="cls-220" d="M8.61,6.6C8.12,6.42,8,6.3,8,6.07s.25-.46.61-.46A.86.86,0,0,1,9.25,6l.42-.56a1.82,1.82,0,0,0-1.23-.47,1.24,1.24,0,0,0-1.31,1.2c0,.58.27.88,1,1.16a3,3,0,0,1,.57.23A.52.52,0,0,1,9,8a.6.6,0,0,1-.64.59A1,1,0,0,1,7.45,8l-.53.51a1.64,1.64,0,0,0,1.45.8A1.36,1.36,0,0,0,9.82,7.91c0-.67-.28-1-1.21-1.31" transform="translate(0 0)"/><path class="cls-220" d="M10.07,7.09A2.22,2.22,0,0,0,13.31,9v-1a1.3,1.3,0,0,1-1,.46,1.37,1.37,0,0,1-1.4-1.44,1.39,1.39,0,0,1,1.37-1.44,1.37,1.37,0,0,1,1,.47v-1a2,2,0,0,0-1-.26,2.21,2.21,0,0,0-2.24,2.19" transform="translate(0 0)"/><polyline class="cls-220" points="19.93 7.81 18.82 4.99 17.92 4.99 19.7 9.29 20.14 9.29 21.95 4.99 21.07 4.99 19.93 7.81"/><polyline class="cls-220" points="22.32 9.19 24.64 9.19 24.64 8.48 23.14 8.48 23.14 7.34 24.59 7.34 24.59 6.63 23.14 6.63 23.14 5.7 24.64 5.7 24.64 4.99 22.32 4.99 22.32 9.19"/><path class="cls-220" d="M26.24,6.92H26V5.65h.25c.51,0,.79.22.79.63s-.28.64-.8.64Zm1.64-.69c0-.78-.54-1.24-1.48-1.24H25.18v4.2H26V7.5h.11l1.13,1.69h1L26.92,7.42a1.12,1.12,0,0,0,1-1.19" transform="translate(0 0)"/><path class="cls-3" d="M28.3,5.36h0v-.1h0c.05,0,.07,0,.07,0s0,.05-.07.05Zm.16-.05c0-.08-.05-.12-.14-.12H28.2v.37h.08V5.42l.11.14h.11l-.13-.15a.1.1,0,0,0,.09-.1" transform="translate(0 0)"/><path class="cls-3" d="M28.33,5.64a.27.27,0,1,1,.26-.26.26.26,0,0,1-.26.26Zm0-.59a.33.33,0,1,0,.32.33.32.32,0,0,0-.32-.33" transform="translate(0 0)"/><polyline class="cls-3" points="9.29 10.29 10.39 11.43 10.39 10.35 10.54 10.35 10.54 11.81 9.45 10.67 9.45 11.75 9.29 11.75 9.29 10.29"/><path class="cls-3" d="M9.31,10.32l1.09,1.15V10.36h.13v1.42L9.44,10.63v1.1H9.31V10.32Zm0,0v1.47h.18V10.7l1.1,1.15V10.33h-.19V11.4L9.28,10.25v0" transform="translate(0 0)"/><polyline class="cls-3" points="11.3 10.35 12.03 10.35 12.03 10.49 11.46 10.49 11.46 10.91 12.01 10.91 12.01 11.05 11.46 11.05 11.46 11.6 12.03 11.6 12.03 11.75 11.3 11.75 11.3 10.35"/><path class="cls-3" d="M12,10.36v.12h-.57v.44H12V11h-.56v.58H12v.11h-.69V10.36Zm0,0h-.74v1.43H12v-.17h-.57v-.52H12v-.18h-.56v-.38H12v-.18h0" transform="translate(0 0)"/><polyline class="cls-3" points="13.13 11.75 12.97 11.75 12.97 10.49 12.64 10.49 12.64 10.35 13.47 10.35 13.47 10.49 13.13 10.49 13.13 11.75"/><path class="cls-3" d="M13.46,10.36v.12h-.34v1.25H13V10.48h-.34v-.12Zm0,0h-.85v.18H13v1.25h.18V10.51h.35v-.18h0" transform="translate(0 0)"/><polyline class="cls-3" points="14.52 11.4 14.97 10.27 15.43 11.4 15.79 10.35 15.96 10.35 15.43 11.82 14.97 10.69 14.52 11.82 13.98 10.35 14.15 10.35 14.52 11.4"/><path class="cls-3" d="M14.53,11.4s.42-1,.44-1.09l.46,1.13s.37-1.06.37-1.08h.14s-.49,1.35-.52,1.42S15,10.65,15,10.65s-.43,1.06-.45,1.13S14,10.4,14,10.36h.14l.38,1.08v0ZM15,10.27l-.44,1.09c0-.07-.36-1-.36-1H14l.56,1.53S15,10.8,15,10.73l.46,1.13L16,10.33h-.2s-.33,1-.36,1S15,10.23,15,10.23v0" transform="translate(0 0)"/><path class="cls-3" d="M16.68,11.05a.58.58,0,0,0,.57.58.59.59,0,0,0,.58-.58.58.58,0,0,0-.58-.58.57.57,0,0,0-.57.58Zm1.3,0a.73.73,0,0,1-1.46,0,.73.73,0,0,1,1.46,0" transform="translate(0 0)"/><path class="cls-3" d="M16.53,11.05a.72.72,0,1,1,.72.71.72.72,0,0,1-.72-.71Zm0,0a.74.74,0,0,0,.74.74.74.74,0,1,0,0-1.48.74.74,0,0,0-.74.74" transform="translate(0 0)"/><path class="cls-3" d="M16.69,11.05a.56.56,0,1,1,1.12,0,.56.56,0,0,1-1.12,0Zm0,0a.59.59,0,0,0,.59.59.58.58,0,0,0,.59-.59.59.59,0,0,0-.59-.6.6.6,0,0,0-.59.6" transform="translate(0 0)"/><path class="cls-3" d="M18.82,11h0c.18,0,.36,0,.36-.26s-.17-.25-.36-.25h0V11Zm0,.75h-.16v-1.4h.2c.27,0,.52.07.52.38a.37.37,0,0,1-.36.39l.45.63h-.19l-.42-.62h0v.62" transform="translate(0 0)"/><path class="cls-3" d="M18.86,10.36c.34,0,.5.12.5.37a.36.36,0,0,1-.34.38h0l.44.62h-.16l-.41-.61H18.8v.61h-.13V10.36Zm-.2,0h0v1.43h.18v-.61h0l.42.61h.23l-.45-.63a.38.38,0,0,0,.34-.4c0-.27-.17-.4-.53-.4h-.2" transform="translate(0 0)"/><path class="cls-3" d="M18.86,10.51c.18,0,.34,0,.34.23S19,11,18.86,11h0v-.47Zm0,0h0V11h.06c.18,0,.37,0,.37-.27s-.19-.26-.37-.26h0" transform="translate(0 0)"/><polyline class="cls-3" points="20.89 10.35 21.1 10.35 20.44 11 21.12 11.75 20.9 11.75 20.33 11.11 20.29 11.14 20.29 11.75 20.13 11.75 20.13 10.35 20.29 10.35 20.29 10.95 20.89 10.35"/><path class="cls-3" d="M21.06,10.36l-.64.64s.62.69.67.73H20.9l-.56-.63v0l0,.05s0,.58,0,.6h-.12V10.36h.12V11l.62-.62Zm0,0h-.22l-.58.58v-.58h-.18v1.43h.18v-.61l0,0,.56.63h.26L20.46,11l.67-.67h0" transform="translate(0 0)"/></g></g></svg>