<svg xmlns="http://www.w3.org/2000/svg" viewBox="0 0 11.27 9.86"><defs><style>.cls-1{fill:#666;}</style></defs><title>자산 21</title><g id="레이어_2" data-name="레이어 2"><g id="레이어_1-2" data-name="레이어 1"><path class="cls-1" d="M11.27,1.17a4.34,4.34,0,0,1-1.33.39A2.48,2.48,0,0,0,11,.18,4.63,4.63,0,0,1,9.49.79,2.23,2.23,0,0,0,7.8,0,2.4,2.4,0,0,0,5.49,2.49a2.6,2.6,0,0,0,.06.56A6.43,6.43,0,0,1,.78.46,2.57,2.57,0,0,0,.47,1.71a2.54,2.54,0,0,0,1,2.07,2.34,2.34,0,0,1-1-.31v0A2.46,2.46,0,0,0,2.31,5.94,2.09,2.09,0,0,1,1.7,6a2.18,2.18,0,0,1-.44,0A2.35,2.35,0,0,0,3.42,7.71,4.42,4.42,0,0,1,.55,8.77a4.93,4.93,0,0,1-.55,0A6.18,6.18,0,0,0,3.54,9.86c4.25,0,6.58-3.79,6.58-7.08,0-.11,0-.21,0-.32A5.29,5.29,0,0,0,11.27,1.17Z"/></g></g></svg>