<svg xmlns="http://www.w3.org/2000/svg" viewBox="0 0 51.66 16.86"><title>자산 15</title><g id="레이어_2" data-name="레이어 2"><g id="레이어_1-2" data-name="레이어 1"><path d="M20.11,0c-3.23,0-4.94,2.19-4.94,5.26v6.39c0,3.1,1.71,5.19,4.94,5.19s5-2.13,5-5.19V5.28C25.11,2.18,23.4,0,20.11,0ZM22.82,11.6c0,2.16-.87,3.36-2.71,3.36s-2.65-1.2-2.65-3.36V5.34c0-2.16.84-3.39,2.65-3.39s2.71,1.23,2.71,3.39Z"/><rect x="33.16" y="0.02" width="2.2" height="16.84"/><polygon points="2.21 0.03 0.01 0.02 0 14.64 0 14.64 0 16.84 7.98 16.84 7.98 14.64 2.2 14.64 2.21 0.03"/><polygon points="51.63 0.01 51.63 0 43.66 0 43.66 2.2 49.47 2.2 49.47 16.85 51.66 16.85 51.66 0.01 51.63 0.01"/></g></g></svg>