<svg xmlns="http://www.w3.org/2000/svg" viewBox="0 0 30.82 30.82"><defs><style>.cls-1{fill:#fff;}.cls-1,.cls-2,.cls-3{fill-rule:evenodd;}.cls-2{fill:#f9ba0d;}.cls-3{fill:#e6001f;}.cls-4{fill:none;stroke:#fff;stroke-miterlimit:2.61;stroke-width:0.03px;}</style></defs><title>자산 33</title><g id="레이어_2" data-name="레이어 2"><g id="레이어_1-2" data-name="레이어 1"><polygon class="cls-1" points="0 0 30.82 0 30.82 30.82 0 30.82 0 0 0 0"/><polygon class="cls-2" points="21.4 24.36 21.86 24.35 22.31 24.31 22.76 24.26 23.2 24.18 23.64 24.08 24.06 23.96 24.48 23.82 24.89 23.66 25.29 23.48 25.67 23.28 26.05 23.06 26.41 22.83 26.76 22.58 27.1 22.31 27.43 22.03 27.74 21.73 28.04 21.42 28.32 21.09 28.58 20.76 28.83 20.41 29.07 20.04 29.28 19.67 29.48 19.28 29.66 18.88 29.82 18.48 29.96 18.06 30.08 17.63 30.18 17.2 30.26 16.76 30.32 16.31 30.35 15.85 30.36 15.39 30.35 14.93 30.32 14.48 30.26 14.03 30.18 13.6 30.08 13.16 29.96 12.74 29.82 12.32 29.66 11.92 29.48 11.52 29.28 11.14 29.07 10.77 28.83 10.4 28.58 10.05 28.32 9.71 28.04 9.39 27.74 9.08 27.43 8.78 27.1 8.5 26.76 8.24 26.41 7.99 26.05 7.75 25.67 7.54 25.29 7.34 24.89 7.16 24.48 7 24.06 6.86 23.64 6.74 23.2 6.64 22.76 6.56 22.31 6.5 21.86 6.47 21.4 6.46 20.94 6.47 20.48 6.5 20.03 6.56 19.59 6.64 19.16 6.74 18.74 6.86 18.32 7 17.91 7.16 17.52 7.34 17.14 7.54 16.76 7.75 16.4 7.99 16.05 8.24 15.71 8.5 15.39 8.78 15.08 9.08 14.78 9.39 14.5 9.71 14.23 10.05 13.99 10.4 13.75 10.77 13.54 11.14 13.34 11.52 13.16 11.92 13 12.32 12.86 12.74 12.74 13.16 12.64 13.6 12.56 14.03 12.51 14.48 12.47 14.93 12.46 15.39 12.47 15.85 12.51 16.31 12.56 16.76 12.64 17.2 12.74 17.63 12.86 18.06 13 18.48 13.16 18.88 13.34 19.28 13.54 19.67 13.75 20.04 13.99 20.41 14.23 20.76 14.5 21.09 14.78 21.42 15.08 21.73 15.39 22.03 15.71 22.31 16.05 22.58 16.4 22.83 16.76 23.06 17.14 23.28 17.52 23.48 17.91 23.66 18.32 23.82 18.74 23.96 19.16 24.08 19.59 24.18 20.03 24.26 20.48 24.31 20.94 24.35 21.4 24.36 21.4 24.36 21.4 24.36"/><polygon class="cls-3" points="9.42 24.36 9.88 24.35 10.34 24.31 10.78 24.26 11.22 24.18 11.65 24.08 12.08 23.96 12.49 23.82 12.9 23.66 13.3 23.48 13.68 23.28 14.06 23.06 14.42 22.83 14.77 22.58 15.11 22.31 15.43 22.03 15.74 21.73 16.04 21.42 16.32 21.09 16.58 20.76 16.83 20.41 17.06 20.04 17.28 19.67 17.48 19.28 17.66 18.88 17.82 18.48 17.95 18.06 18.07 17.63 18.17 17.2 18.25 16.76 18.31 16.31 18.34 15.85 18.36 15.39 18.34 14.93 18.31 14.48 18.25 14.03 18.17 13.6 18.07 13.16 17.95 12.74 17.82 12.32 17.66 11.92 17.48 11.52 17.28 11.14 17.06 10.77 16.83 10.4 16.58 10.05 16.32 9.71 16.04 9.39 15.74 9.08 15.43 8.78 15.11 8.5 14.77 8.24 14.42 7.99 14.06 7.75 13.68 7.54 13.3 7.34 12.9 7.16 12.49 7 12.08 6.86 11.65 6.74 11.22 6.64 10.78 6.56 10.34 6.5 9.88 6.47 9.42 6.46 8.96 6.47 8.5 6.5 8.06 6.56 7.61 6.64 7.18 6.74 6.75 6.86 6.34 7 5.93 7.16 5.53 7.34 5.14 7.54 4.77 7.75 4.41 7.99 4.05 8.24 3.72 8.5 3.39 8.78 3.08 9.08 2.78 9.39 2.5 9.71 2.23 10.05 1.98 10.4 1.75 10.77 1.53 11.14 1.34 11.52 1.16 11.92 1 12.32 0.85 12.74 0.73 13.16 0.63 13.6 0.56 14.03 0.5 14.48 0.47 14.93 0.45 15.39 0.47 15.85 0.5 16.31 0.56 16.76 0.63 17.2 0.73 17.63 0.85 18.06 1 18.48 1.16 18.88 1.34 19.28 1.53 19.67 1.75 20.04 1.98 20.41 2.23 20.76 2.5 21.09 2.78 21.42 3.08 21.73 3.39 22.03 3.72 22.31 4.05 22.58 4.41 22.83 4.77 23.06 5.14 23.28 5.53 23.48 5.93 23.66 6.34 23.82 6.75 23.96 7.18 24.08 7.61 24.18 8.06 24.26 8.5 24.31 8.96 24.35 9.42 24.36 9.42 24.36 9.42 24.36"/><polygon class="cls-2" points="14.36 9.89 19.12 9.89 19.12 9.4 14.77 9.4 14.36 9.89 14.36 9.89 14.36 9.89"/><polygon class="cls-2" points="13.65 10.97 19.12 10.97 19.12 10.48 13.94 10.48 13.65 10.97 13.65 10.97 13.65 10.97"/><polygon class="cls-2" points="13.12 12.05 19.12 12.05 19.12 11.56 13.33 11.56 13.12 12.05 13.12 12.05 13.12 12.05"/><polygon class="cls-2" points="12.75 13.13 19.12 13.13 19.12 12.64 12.9 12.64 12.75 13.13 12.75 13.13 12.75 13.13"/><polygon class="cls-2" points="12.96 18.35 19.13 18.35 19.13 17.87 12.81 17.87 12.96 18.35 12.96 18.35 12.96 18.35"/><polygon class="cls-2" points="13.42 19.43 19.13 19.43 19.13 18.95 13.19 18.95 13.42 19.43 13.42 19.43 13.42 19.43"/><polygon class="cls-2" points="14.06 20.51 19.13 20.51 19.13 20.03 13.75 20.03 14.06 20.51 14.06 20.51 14.06 20.51"/><polygon class="cls-2" points="14.94 21.59 19.13 21.59 19.13 21.11 14.52 21.11 14.94 21.59 14.94 21.59 14.94 21.59"/><polygon class="cls-2" points="12.54 14.21 19.12 14.21 19.12 13.72 12.63 13.72 12.54 14.21 12.54 14.21 12.54 14.21"/><polygon class="cls-2" points="16.55 17.28 19.06 17.28 19.06 16.79 16.64 16.79 16.55 17.28 16.55 17.28 16.55 17.28"/><polygon class="cls-2" points="16.75 16.2 19.06 16.2 19.06 15.71 16.84 15.71 16.75 16.2 16.75 16.2 16.75 16.2"/><polygon class="cls-2" points="12.37 15.71 13.02 15.71 13.02 16.2 12.4 16.2 12.37 15.71 12.37 15.71 12.37 15.71"/><polygon class="cls-1" points="11.15 15.12 11.11 15.12 11.07 15.11 11.03 15.11 10.99 15.1 10.96 15.09 10.91 15.09 10.88 15.08 10.83 15.07 10.79 15.07 10.74 15.07 10.69 15.06 10.63 15.06 10.57 15.06 10.5 15.06 10.42 15.07 10.33 15.07 10.27 15.08 10.21 15.09 10.16 15.11 10.12 15.13 10.08 15.15 10.04 15.17 10.01 15.21 9.98 15.23 9.96 15.27 9.95 15.3 9.94 15.33 9.94 15.37 9.95 15.41 9.96 15.45 9.98 15.49 10.02 15.53 10.08 15.59 10.15 15.63 10.23 15.67 10.32 15.7 10.42 15.73 10.52 15.77 10.62 15.8 10.72 15.84 10.81 15.89 10.89 15.96 10.97 16.03 11.03 16.13 11.08 16.24 11.11 16.38 11.12 16.54 11.11 16.73 11.09 16.87 11.05 17 11 17.11 10.94 17.21 10.87 17.3 10.79 17.37 10.71 17.44 10.62 17.5 10.52 17.54 10.42 17.58 10.32 17.61 10.21 17.64 10.11 17.65 10.01 17.66 9.91 17.67 9.82 17.67 9.69 17.67 9.57 17.67 9.46 17.67 9.36 17.66 9.27 17.66 9.19 17.66 9.12 17.65 9.05 17.64 8.98 17.64 8.93 17.62 8.87 17.61 8.82 17.6 8.77 17.59 8.72 17.57 8.67 17.55 8.62 17.53 8.75 16.86 8.78 16.87 8.81 16.88 8.86 16.89 8.91 16.91 8.96 16.92 9.02 16.93 9.09 16.94 9.16 16.96 9.24 16.97 9.31 16.98 9.4 16.99 9.48 17 9.57 17 9.66 17 9.74 17 9.83 17 9.92 16.98 9.99 16.96 10.04 16.93 10.09 16.88 10.12 16.84 10.14 16.79 10.15 16.74 10.17 16.7 10.17 16.61 10.14 16.54 10.09 16.48 10.02 16.42 9.93 16.38 9.82 16.33 9.71 16.29 9.59 16.24 9.47 16.19 9.35 16.13 9.25 16.05 9.15 15.95 9.07 15.84 9.02 15.7 8.99 15.54 8.99 15.35 9.01 15.23 9.03 15.12 9.06 15.01 9.1 14.92 9.15 14.83 9.2 14.75 9.26 14.67 9.34 14.61 9.43 14.55 9.52 14.5 9.63 14.46 9.75 14.42 9.89 14.39 10.04 14.37 10.2 14.36 10.38 14.36 10.49 14.36 10.59 14.36 10.69 14.37 10.77 14.37 10.85 14.37 10.91 14.38 10.98 14.39 11.03 14.39 11.08 14.4 11.12 14.41 11.16 14.41 11.2 14.42 11.23 14.43 11.26 14.43 11.28 14.44 11.31 14.44 11.15 15.12 11.15 15.12 11.15 15.12"/><polyline class="cls-4" points="11.15 15.12 11.15 15.12 11.11 15.12 11.07 15.11 11.03 15.11 10.99 15.1 10.96 15.09 10.91 15.09 10.88 15.08 10.83 15.07 10.79 15.07 10.74 15.07 10.69 15.06 10.63 15.06 10.57 15.06 10.5 15.06 10.42 15.07 10.33 15.07 10.33 15.07 10.27 15.08 10.21 15.09 10.16 15.11 10.12 15.13 10.08 15.15 10.04 15.17 10.01 15.21 9.98 15.23 9.96 15.27 9.95 15.3 9.94 15.33 9.94 15.37 9.95 15.41 9.96 15.45 9.98 15.49 10.02 15.53 10.02 15.53 10.08 15.59 10.15 15.63 10.23 15.67 10.32 15.7 10.42 15.73 10.52 15.77 10.62 15.8 10.72 15.84 10.81 15.89 10.89 15.96 10.97 16.03 11.03 16.13 11.08 16.24 11.11 16.38 11.12 16.54 11.11 16.73 11.11 16.73 11.09 16.87 11.05 17 11 17.11 10.94 17.21 10.87 17.3 10.79 17.37 10.71 17.44 10.62 17.5 10.52 17.54 10.42 17.58 10.32 17.61 10.21 17.64 10.11 17.65 10.01 17.66 9.91 17.67 9.82 17.67 9.82 17.67 9.69 17.67 9.57 17.67 9.46 17.67 9.36 17.66 9.27 17.66 9.19 17.66 9.12 17.65 9.05 17.64 8.98 17.64 8.93 17.62 8.87 17.61 8.82 17.6 8.77 17.59 8.72 17.57 8.67 17.55 8.62 17.53 8.75 16.86 8.75 16.86 8.78 16.87 8.81 16.88 8.86 16.89 8.91 16.91 8.96 16.92 9.02 16.93 9.09 16.94 9.16 16.96 9.24 16.97 9.31 16.98 9.4 16.99 9.48 17 9.57 17 9.66 17 9.74 17 9.83 17 9.83 17 9.92 16.98 9.99 16.96 10.04 16.93 10.09 16.88 10.12 16.84 10.14 16.79 10.15 16.74 10.17 16.7 10.17 16.7 10.17 16.61 10.14 16.54 10.09 16.48 10.02 16.42 9.93 16.38 9.82 16.33 9.71 16.29 9.59 16.24 9.47 16.19 9.35 16.13 9.25 16.05 9.15 15.95 9.07 15.84 9.02 15.7 8.99 15.54 8.99 15.35 8.99 15.35 9.01 15.23 9.03 15.12 9.06 15.01 9.1 14.92 9.15 14.83 9.2 14.75 9.26 14.67 9.34 14.61 9.43 14.55 9.52 14.5 9.63 14.46 9.75 14.42 9.89 14.39 10.04 14.37 10.2 14.36 10.38 14.36 10.38 14.36 10.49 14.36 10.59 14.36 10.69 14.37 10.77 14.37 10.85 14.37 10.91 14.38 10.98 14.39 11.03 14.39 11.08 14.4 11.12 14.41 11.16 14.41 11.2 14.42 11.23 14.43 11.26 14.43 11.28 14.44 11.31 14.44 11.15 15.12"/><polygon class="cls-1" points="11.87 13.69 12.71 13.69 12.58 14.42 13.09 14.42 12.98 15.11 12.45 15.09 12.16 16.77 12.15 16.84 12.17 16.89 12.2 16.93 12.24 16.96 12.29 16.98 12.35 17 12.42 17.01 12.49 17.02 12.56 17.01 12.62 17.01 12.67 17 12.72 16.99 12.76 16.97 12.79 16.96 12.81 16.96 12.81 16.96 12.71 17.52 12.69 17.53 12.66 17.55 12.64 17.56 12.62 17.57 12.6 17.58 12.58 17.59 12.55 17.6 12.52 17.61 12.49 17.61 12.46 17.62 12.43 17.63 12.39 17.63 12.35 17.64 12.3 17.64 12.26 17.65 12.21 17.66 11.97 17.66 11.85 17.65 11.75 17.64 11.65 17.62 11.57 17.6 11.5 17.57 11.44 17.54 11.39 17.5 11.35 17.46 11.32 17.42 11.3 17.37 11.29 17.32 11.28 17.26 11.28 17.2 11.28 17.13 11.28 17.06 11.29 16.99 11.87 13.69 11.87 13.69 11.87 13.69"/><polyline class="cls-4" points="11.87 13.69 12.71 13.69 12.58 14.42 13.09 14.42 12.98 15.11 12.45 15.09 12.16 16.77 12.16 16.77 12.15 16.84 12.17 16.89 12.2 16.93 12.24 16.96 12.29 16.98 12.35 17 12.42 17.01 12.49 17.02 12.49 17.02 12.56 17.01 12.62 17.01 12.67 17 12.72 16.99 12.76 16.97 12.79 16.96 12.81 16.96 12.81 16.96 12.71 17.52 12.71 17.52 12.69 17.53 12.66 17.55 12.64 17.56 12.62 17.57 12.6 17.58 12.58 17.59 12.55 17.6 12.52 17.61 12.49 17.61 12.46 17.62 12.43 17.63 12.39 17.63 12.35 17.64 12.3 17.64 12.26 17.65 12.21 17.66 11.97 17.66 11.97 17.66 11.85 17.65 11.75 17.64 11.65 17.62 11.57 17.6 11.5 17.57 11.44 17.54 11.39 17.5 11.35 17.46 11.32 17.42 11.3 17.37 11.29 17.32 11.28 17.26 11.28 17.2 11.28 17.13 11.28 17.06 11.29 16.99 11.87 13.69"/><polygon class="cls-1" points="13.75 16.24 13.74 16.3 13.74 16.35 13.75 16.41 13.76 16.46 13.78 16.52 13.8 16.57 13.84 16.63 13.87 16.68 13.92 16.73 13.96 16.78 14.01 16.83 14.06 16.86 14.12 16.89 14.18 16.92 14.24 16.94 14.3 16.96 14.38 16.97 14.45 16.98 14.53 16.99 14.61 16.99 14.69 17 14.77 17 14.85 16.99 14.93 16.99 15.01 16.97 15.09 16.96 15.18 16.94 15.26 16.91 15.35 16.88 15.43 16.84 15.52 16.8 15.61 16.74 15.48 17.49 15.44 17.51 15.39 17.54 15.34 17.55 15.29 17.57 15.25 17.59 15.2 17.6 15.15 17.61 15.1 17.62 15.05 17.63 14.99 17.64 14.92 17.64 14.85 17.65 14.77 17.65 14.69 17.65 14.6 17.66 14.5 17.66 14.35 17.65 14.2 17.64 14.05 17.62 13.9 17.58 13.75 17.54 13.61 17.48 13.47 17.4 13.35 17.32 13.23 17.21 13.13 17.09 13.04 16.95 12.97 16.79 12.91 16.61 12.88 16.41 12.87 16.19 12.89 15.94 12.9 15.84 12.92 15.73 12.94 15.61 12.97 15.48 13.02 15.36 13.07 15.23 13.14 15.09 13.23 14.97 13.32 14.85 13.44 14.73 13.58 14.63 13.73 14.54 13.9 14.46 14.1 14.41 14.31 14.37 14.56 14.36 14.68 14.36 14.8 14.37 14.93 14.39 15.05 14.43 15.17 14.47 15.29 14.53 15.4 14.6 15.5 14.68 15.59 14.79 15.66 14.91 15.72 15.04 15.77 15.21 15.79 15.39 15.79 15.59 15.77 15.82 15.72 16.07 15.71 16.26 13.51 16.26 13.65 15.66 14.97 15.66 14.98 15.59 14.97 15.52 14.97 15.45 14.96 15.39 14.93 15.33 14.91 15.28 14.88 15.23 14.85 15.19 14.82 15.16 14.78 15.13 14.73 15.1 14.69 15.07 14.64 15.06 14.59 15.04 14.54 15.04 14.48 15.03 14.43 15.03 14.37 15.04 14.32 15.05 14.27 15.07 14.22 15.1 14.17 15.12 14.13 15.16 14.09 15.19 14.05 15.23 14.01 15.28 13.98 15.33 13.95 15.38 13.93 15.43 13.9 15.49 13.89 15.55 13.87 15.62 13.75 16.24 13.75 16.24 13.75 16.24"/><polyline class="cls-4" points="13.75 16.24 13.75 16.24 13.74 16.3 13.74 16.35 13.75 16.41 13.76 16.46 13.78 16.52 13.8 16.57 13.84 16.63 13.87 16.68 13.92 16.73 13.96 16.78 14.01 16.83 14.06 16.86 14.12 16.89 14.18 16.92 14.24 16.94 14.3 16.96 14.3 16.96 14.38 16.97 14.45 16.98 14.53 16.99 14.61 16.99 14.69 17 14.77 17 14.85 16.99 14.93 16.99 15.01 16.97 15.09 16.96 15.18 16.94 15.26 16.91 15.35 16.88 15.43 16.84 15.52 16.8 15.61 16.74 15.48 17.49 15.48 17.49 15.44 17.51 15.39 17.54 15.34 17.55 15.29 17.57 15.25 17.59 15.2 17.6 15.15 17.61 15.1 17.62 15.05 17.63 14.99 17.64 14.92 17.64 14.85 17.65 14.77 17.65 14.69 17.65 14.6 17.66 14.5 17.66 14.5 17.66 14.35 17.65 14.2 17.64 14.05 17.62 13.9 17.58 13.75 17.54 13.61 17.48 13.47 17.4 13.35 17.32 13.23 17.21 13.13 17.09 13.04 16.95 12.97 16.79 12.91 16.61 12.88 16.41 12.87 16.19 12.89 15.94 12.89 15.94 12.9 15.84 12.92 15.73 12.94 15.61 12.97 15.48 13.02 15.36 13.07 15.23 13.14 15.09 13.23 14.97 13.32 14.85 13.44 14.73 13.58 14.63 13.73 14.54 13.9 14.46 14.1 14.41 14.31 14.37 14.56 14.36 14.56 14.36 14.68 14.36 14.8 14.37 14.93 14.39 15.05 14.43 15.17 14.47 15.29 14.53 15.4 14.6 15.5 14.68 15.59 14.79 15.66 14.91 15.72 15.04 15.77 15.21 15.79 15.39 15.79 15.59 15.77 15.82 15.72 16.07 15.71 16.26 13.51 16.26 13.65 15.66 14.97 15.66 14.97 15.66 14.98 15.59 14.97 15.52 14.97 15.45 14.96 15.39 14.93 15.33 14.91 15.28 14.88 15.23 14.85 15.19 14.82 15.16 14.78 15.13 14.73 15.1 14.69 15.07 14.64 15.06 14.59 15.04 14.54 15.04 14.48 15.03 14.48 15.03 14.43 15.03 14.37 15.04 14.32 15.05 14.27 15.07 14.22 15.1 14.17 15.12 14.13 15.16 14.09 15.19 14.05 15.23 14.01 15.28 13.98 15.33 13.95 15.38 13.93 15.43 13.9 15.49 13.89 15.55 13.87 15.62 13.75 16.24"/><polygon class="cls-1" points="20.95 14.6 20.92 14.58 20.88 14.56 20.83 14.54 20.79 14.52 20.74 14.5 20.69 14.49 20.64 14.47 20.59 14.45 20.53 14.44 20.47 14.42 20.41 14.41 20.34 14.4 20.28 14.39 20.21 14.39 20.13 14.39 20.06 14.39 19.98 14.39 19.9 14.39 19.82 14.4 19.74 14.42 19.65 14.44 19.57 14.48 19.48 14.52 19.4 14.57 19.32 14.64 19.24 14.72 19.16 14.81 19.09 14.93 19.03 15.06 18.96 15.21 18.91 15.38 18.86 15.57 18.84 15.68 18.83 15.79 18.82 15.89 18.82 16 18.83 16.1 18.85 16.2 18.88 16.29 18.91 16.38 18.96 16.46 19.01 16.54 19.08 16.61 19.15 16.67 19.23 16.72 19.32 16.77 19.43 16.81 19.54 16.84 19.58 16.84 19.63 16.85 19.68 16.86 19.74 16.86 19.81 16.87 19.88 16.87 19.95 16.87 20.03 16.86 20.11 16.86 20.18 16.84 20.26 16.82 20.34 16.8 20.41 16.76 20.48 16.72 20.54 16.68 20.61 16.62 20.47 17.43 20.45 17.44 20.43 17.46 20.41 17.48 20.38 17.5 20.35 17.52 20.31 17.55 20.26 17.57 20.2 17.58 20.13 17.61 20.05 17.62 19.96 17.63 19.86 17.64 19.74 17.65 19.61 17.65 19.45 17.65 19.28 17.64 19.14 17.63 19 17.6 18.87 17.55 18.73 17.49 18.59 17.42 18.47 17.33 18.35 17.22 18.23 17.1 18.14 16.96 18.05 16.81 17.98 16.64 17.92 16.46 17.89 16.26 17.88 16.04 17.88 15.81 17.91 15.56 17.94 15.43 17.97 15.31 18 15.2 18.03 15.08 18.06 14.98 18.1 14.87 18.14 14.77 18.18 14.68 18.23 14.59 18.27 14.5 18.32 14.41 18.38 14.34 18.43 14.26 18.49 14.19 18.55 14.12 18.61 14.06 18.68 14 18.75 13.94 18.83 13.89 18.9 13.84 18.98 13.79 19.07 13.76 19.15 13.72 19.24 13.69 19.33 13.66 19.42 13.63 19.52 13.61 19.62 13.59 19.73 13.58 19.84 13.56 19.94 13.56 20.06 13.56 20.16 13.56 20.25 13.56 20.34 13.57 20.43 13.59 20.51 13.6 20.6 13.62 20.67 13.63 20.75 13.65 20.82 13.67 20.88 13.69 20.93 13.7 20.98 13.72 21.02 13.74 21.06 13.75 21.09 13.76 21.11 13.77 20.95 14.6 20.95 14.6 20.95 14.6"/><polyline class="cls-4" points="20.95 14.6 20.95 14.6 20.92 14.58 20.88 14.56 20.83 14.54 20.79 14.52 20.74 14.5 20.69 14.49 20.64 14.47 20.59 14.45 20.53 14.44 20.47 14.42 20.41 14.41 20.34 14.4 20.28 14.39 20.21 14.39 20.13 14.39 20.06 14.39 20.06 14.39 19.98 14.39 19.9 14.39 19.82 14.4 19.74 14.42 19.65 14.44 19.57 14.48 19.48 14.52 19.4 14.57 19.32 14.64 19.24 14.72 19.16 14.81 19.09 14.93 19.03 15.06 18.96 15.21 18.91 15.38 18.86 15.57 18.86 15.57 18.84 15.68 18.83 15.79 18.82 15.89 18.82 16 18.83 16.1 18.85 16.2 18.88 16.29 18.91 16.38 18.96 16.46 19.01 16.54 19.08 16.61 19.15 16.67 19.23 16.72 19.32 16.77 19.43 16.81 19.54 16.84 19.54 16.84 19.58 16.84 19.63 16.85 19.68 16.86 19.74 16.86 19.81 16.87 19.88 16.87 19.95 16.87 20.03 16.86 20.11 16.86 20.18 16.84 20.26 16.82 20.34 16.8 20.41 16.76 20.48 16.72 20.54 16.68 20.61 16.62 20.47 17.43 20.47 17.43 20.45 17.44 20.43 17.46 20.41 17.48 20.38 17.5 20.35 17.52 20.31 17.55 20.26 17.57 20.2 17.58 20.13 17.61 20.05 17.62 19.96 17.63 19.86 17.64 19.74 17.65 19.61 17.65 19.45 17.65 19.28 17.64 19.28 17.64 19.14 17.63 19 17.6 18.87 17.55 18.73 17.49 18.59 17.42 18.47 17.33 18.35 17.22 18.23 17.1 18.14 16.96 18.05 16.81 17.98 16.64 17.92 16.46 17.89 16.26 17.88 16.04 17.88 15.81 17.91 15.56 17.91 15.56 17.94 15.43 17.97 15.31 18 15.2 18.03 15.08 18.06 14.98 18.1 14.87 18.14 14.77 18.18 14.68 18.23 14.59 18.27 14.5 18.32 14.41 18.38 14.34 18.43 14.26 18.49 14.19 18.55 14.12 18.61 14.06 18.68 14 18.75 13.94 18.83 13.89 18.9 13.84 18.98 13.79 19.07 13.76 19.15 13.72 19.24 13.69 19.33 13.66 19.42 13.63 19.52 13.61 19.62 13.59 19.73 13.58 19.84 13.56 19.94 13.56 20.06 13.56 20.06 13.56 20.16 13.56 20.25 13.56 20.34 13.57 20.43 13.59 20.51 13.6 20.6 13.62 20.67 13.63 20.75 13.65 20.82 13.67 20.88 13.69 20.93 13.7 20.98 13.72 21.02 13.74 21.06 13.75 21.09 13.76 21.11 13.77 20.95 14.6"/><polygon class="cls-1" points="28.39 17.66 27.55 17.66 27.61 17.32 27.61 17.29 27.57 17.35 27.51 17.41 27.46 17.45 27.41 17.5 27.35 17.54 27.3 17.57 27.24 17.6 27.19 17.62 27.13 17.64 27.07 17.66 27.02 17.67 26.95 17.68 26.89 17.69 26.84 17.7 26.78 17.7 26.72 17.7 26.56 17.69 26.41 17.66 26.28 17.61 26.16 17.54 26.05 17.45 25.95 17.34 25.87 17.23 25.8 17.11 25.74 16.97 25.69 16.83 25.66 16.68 25.63 16.53 25.62 16.37 25.63 16.22 25.64 16.06 25.67 15.91 25.71 15.73 25.77 15.56 25.83 15.41 25.91 15.26 25.98 15.13 26.08 15.01 26.17 14.9 26.27 14.8 26.38 14.71 26.49 14.63 26.6 14.57 26.72 14.52 26.84 14.47 26.96 14.45 27.08 14.43 27.2 14.42 27.29 14.43 27.37 14.44 27.45 14.45 27.52 14.47 27.59 14.49 27.66 14.52 27.72 14.55 27.77 14.59 27.82 14.63 27.86 14.66 27.9 14.7 27.94 14.74 27.97 14.78 28 14.82 28.02 14.86 28.04 14.89 28.04 14.89 28.25 13.71 29.07 13.71 28.39 17.66 28.39 17.66 28.39 17.66"/><polyline class="cls-4" points="28.39 17.66 27.55 17.66 27.61 17.32 27.61 17.29 27.61 17.29 27.57 17.35 27.51 17.41 27.46 17.45 27.41 17.5 27.35 17.54 27.3 17.57 27.24 17.6 27.19 17.62 27.13 17.64 27.07 17.66 27.02 17.67 26.95 17.68 26.89 17.69 26.84 17.7 26.78 17.7 26.72 17.7 26.72 17.7 26.56 17.69 26.41 17.66 26.28 17.61 26.16 17.54 26.05 17.45 25.95 17.34 25.87 17.23 25.8 17.11 25.74 16.97 25.69 16.83 25.66 16.68 25.63 16.53 25.62 16.37 25.63 16.22 25.64 16.06 25.67 15.91 25.67 15.91 25.71 15.73 25.77 15.56 25.83 15.41 25.91 15.26 25.98 15.13 26.08 15.01 26.17 14.9 26.27 14.8 26.38 14.71 26.49 14.63 26.6 14.57 26.72 14.52 26.84 14.47 26.96 14.45 27.08 14.43 27.2 14.42 27.2 14.42 27.29 14.43 27.37 14.44 27.45 14.45 27.52 14.47 27.59 14.49 27.66 14.52 27.72 14.55 27.77 14.59 27.82 14.63 27.86 14.66 27.9 14.7 27.94 14.74 27.97 14.78 28 14.82 28.02 14.86 28.04 14.89 28.04 14.89 28.25 13.71 29.07 13.71 28.39 17.66"/><polygon class="cls-2" points="27.02 16.93 27.11 16.92 27.18 16.9 27.26 16.88 27.33 16.85 27.39 16.81 27.45 16.77 27.51 16.71 27.56 16.66 27.6 16.6 27.65 16.53 27.68 16.46 27.72 16.39 27.75 16.32 27.77 16.24 27.79 16.16 27.81 16.07 27.82 15.99 27.83 15.9 27.83 15.82 27.83 15.74 27.82 15.66 27.81 15.58 27.79 15.51 27.76 15.44 27.73 15.38 27.7 15.32 27.66 15.27 27.61 15.23 27.56 15.2 27.51 15.17 27.45 15.16 27.39 15.15 27.3 15.16 27.23 15.17 27.16 15.19 27.09 15.22 27.03 15.26 26.97 15.31 26.92 15.36 26.87 15.42 26.82 15.48 26.78 15.55 26.74 15.63 26.71 15.71 26.68 15.79 26.65 15.87 26.63 15.96 26.61 16.04 26.59 16.18 26.6 16.32 26.62 16.47 26.66 16.61 26.72 16.73 26.8 16.84 26.9 16.9 27.02 16.93 27.02 16.93 27.02 16.93"/><polygon class="cls-1" points="8.48 16.99 8.36 17.66 7.6 17.66 7.62 17.53 7.63 17.42 7.64 17.34 7.66 17.29 7.62 17.34 7.57 17.39 7.51 17.43 7.45 17.48 7.37 17.52 7.3 17.55 7.22 17.59 7.14 17.62 7.05 17.65 6.96 17.67 6.88 17.69 6.79 17.7 6.7 17.7 6.61 17.71 6.53 17.7 6.44 17.69 6.34 17.66 6.24 17.63 6.16 17.59 6.08 17.55 6.01 17.5 5.96 17.44 5.91 17.39 5.86 17.32 5.83 17.26 5.8 17.19 5.77 17.13 5.75 17.06 5.74 16.99 5.73 16.92 5.73 16.86 5.73 16.79 5.74 16.67 5.75 16.56 5.79 16.45 5.83 16.35 5.87 16.25 5.93 16.17 5.99 16.08 6.06 16.01 6.14 15.94 6.22 15.88 6.31 15.82 6.4 15.77 6.5 15.73 6.6 15.69 6.7 15.67 6.81 15.65 6.81 15.65 6.83 15.64 6.85 15.64 6.88 15.64 6.92 15.63 6.96 15.63 7 15.62 7.06 15.62 7.11 15.61 7.16 15.61 7.21 15.6 7.26 15.6 7.31 15.59 7.36 15.59 7.4 15.59 7.43 15.59 7.5 15.59 7.57 15.59 7.64 15.59 7.71 15.59 7.76 15.6 7.8 15.6 7.83 15.6 7.84 15.6 7.85 15.58 7.87 15.53 7.88 15.46 7.89 15.41 7.88 15.34 7.85 15.28 7.81 15.23 7.76 15.18 7.71 15.14 7.64 15.11 7.57 15.1 7.49 15.09 7.41 15.09 7.32 15.08 7.22 15.08 7.13 15.09 7.03 15.09 6.93 15.1 6.83 15.11 6.74 15.12 6.65 15.13 6.56 15.15 6.48 15.16 6.41 15.18 6.34 15.2 6.29 15.22 6.25 15.24 6.21 15.26 6.43 14.53 6.5 14.5 6.56 14.48 6.63 14.46 6.71 14.44 6.78 14.43 6.86 14.41 6.94 14.4 7.02 14.39 7.1 14.39 7.19 14.39 7.28 14.38 7.37 14.38 7.47 14.38 7.57 14.38 7.68 14.39 7.78 14.39 7.87 14.39 7.96 14.41 8.05 14.43 8.15 14.46 8.24 14.49 8.33 14.54 8.42 14.59 8.51 14.65 8.58 14.71 8.65 14.79 8.71 14.87 8.75 14.96 8.78 15.05 8.8 15.16 8.8 15.27 8.78 15.39 8.48 16.99 8.48 16.99 8.48 16.99"/><polyline class="cls-4" points="8.48 16.99 8.36 17.66 7.6 17.66 7.6 17.66 7.62 17.53 7.63 17.42 7.64 17.34 7.66 17.29 7.66 17.29 7.62 17.34 7.57 17.39 7.51 17.43 7.45 17.48 7.37 17.52 7.3 17.55 7.22 17.59 7.14 17.62 7.05 17.65 6.96 17.67 6.88 17.69 6.79 17.7 6.7 17.7 6.61 17.71 6.53 17.7 6.44 17.69 6.44 17.69 6.34 17.66 6.24 17.63 6.16 17.59 6.08 17.55 6.01 17.5 5.96 17.44 5.91 17.39 5.86 17.32 5.83 17.26 5.8 17.19 5.77 17.13 5.75 17.06 5.74 16.99 5.73 16.92 5.73 16.86 5.73 16.79 5.73 16.79 5.74 16.67 5.75 16.56 5.79 16.45 5.83 16.35 5.87 16.25 5.93 16.17 5.99 16.08 6.06 16.01 6.14 15.94 6.22 15.88 6.31 15.82 6.4 15.77 6.5 15.73 6.6 15.69 6.7 15.67 6.81 15.65 6.81 15.65 6.81 15.65 6.83 15.64 6.85 15.64 6.88 15.64 6.92 15.63 6.96 15.63 7 15.62 7.06 15.62 7.11 15.61 7.16 15.61 7.21 15.6 7.26 15.6 7.31 15.59 7.36 15.59 7.4 15.59 7.43 15.59 7.43 15.59 7.5 15.59 7.57 15.59 7.64 15.59 7.71 15.59 7.76 15.6 7.8 15.6 7.83 15.6 7.84 15.6 7.84 15.6 7.85 15.58 7.87 15.53 7.88 15.46 7.89 15.41 7.89 15.41 7.88 15.34 7.85 15.28 7.81 15.23 7.76 15.18 7.71 15.14 7.64 15.11 7.57 15.1 7.49 15.09 7.49 15.09 7.41 15.09 7.32 15.08 7.22 15.08 7.13 15.09 7.03 15.09 6.93 15.1 6.83 15.11 6.74 15.12 6.65 15.13 6.56 15.15 6.48 15.16 6.41 15.18 6.34 15.2 6.29 15.22 6.25 15.24 6.21 15.26 6.43 14.53 6.43 14.53 6.5 14.5 6.56 14.48 6.63 14.46 6.71 14.44 6.78 14.43 6.86 14.41 6.94 14.4 7.02 14.39 7.1 14.39 7.19 14.39 7.28 14.38 7.37 14.38 7.47 14.38 7.57 14.38 7.68 14.39 7.78 14.39 7.78 14.39 7.87 14.39 7.96 14.41 8.05 14.43 8.15 14.46 8.24 14.49 8.33 14.54 8.42 14.59 8.51 14.65 8.58 14.71 8.65 14.79 8.71 14.87 8.75 14.96 8.78 15.05 8.8 15.16 8.8 15.27 8.78 15.39 8.48 16.99"/><polygon class="cls-3" points="7.75 16.2 7.75 16.18 7.74 16.17 7.72 16.16 7.69 16.15 7.65 16.15 7.62 16.14 7.57 16.14 7.53 16.14 7.48 16.15 7.42 16.15 7.38 16.16 7.33 16.16 7.28 16.17 7.24 16.18 7.21 16.19 7.17 16.2 7.15 16.2 7.13 16.21 7.09 16.23 7.06 16.24 7.02 16.26 6.98 16.28 6.94 16.3 6.9 16.32 6.86 16.36 6.82 16.39 6.78 16.42 6.75 16.46 6.72 16.5 6.7 16.54 6.68 16.59 6.67 16.64 6.67 16.74 6.68 16.82 6.71 16.88 6.75 16.93 6.8 16.96 6.85 16.97 6.9 16.98 6.95 16.99 7.04 16.98 7.12 16.97 7.2 16.96 7.26 16.94 7.33 16.92 7.38 16.89 7.43 16.87 7.48 16.84 7.52 16.8 7.55 16.77 7.58 16.73 7.61 16.7 7.63 16.66 7.65 16.63 7.66 16.59 7.67 16.56 7.7 16.47 7.72 16.37 7.74 16.28 7.75 16.2 7.75 16.2 7.75 16.2"/><polygon class="cls-1" points="2.13 17.66 1.3 17.66 1.99 13.69 3.42 13.69 3.55 16.04 4.54 13.69 6.03 13.69 5.33 17.66 4.51 17.66 5.03 14.69 5 14.69 3.77 17.66 2.84 17.66 2.83 17.53 2.81 17.2 2.79 16.73 2.76 16.2 2.73 15.66 2.7 15.18 2.68 14.84 2.67 14.69 2.66 14.69 2.65 14.69 2.63 14.69 2.63 14.69 2.13 17.66 2.13 17.66 2.13 17.66"/><polyline class="cls-4" points="2.13 17.66 1.3 17.66 1.99 13.69 3.42 13.69 3.55 16.04 4.54 13.69 6.03 13.69 5.33 17.66 4.51 17.66 5.03 14.69 5 14.69 3.77 17.66 2.84 17.66 2.84 17.66 2.83 17.53 2.81 17.2 2.79 16.73 2.76 16.2 2.73 15.66 2.7 15.18 2.68 14.84 2.67 14.69 2.67 14.69 2.66 14.69 2.65 14.69 2.63 14.69 2.63 14.69 2.13 17.66"/><polygon class="cls-1" points="23.46 16.99 23.34 17.66 22.58 17.66 22.59 17.53 22.59 17.42 22.59 17.34 22.6 17.31 22.56 17.35 22.51 17.4 22.46 17.44 22.4 17.48 22.34 17.52 22.26 17.56 22.19 17.59 22.11 17.62 22.03 17.65 21.95 17.67 21.86 17.69 21.78 17.7 21.69 17.7 21.6 17.71 21.52 17.7 21.44 17.69 21.33 17.66 21.24 17.63 21.15 17.59 21.07 17.55 21.01 17.5 20.95 17.44 20.9 17.39 20.86 17.32 20.82 17.26 20.8 17.19 20.77 17.13 20.76 17.06 20.74 16.99 20.73 16.92 20.73 16.86 20.73 16.79 20.73 16.67 20.75 16.56 20.78 16.45 20.82 16.35 20.86 16.25 20.92 16.17 20.98 16.08 21.05 16.01 21.13 15.94 21.21 15.88 21.3 15.82 21.4 15.77 21.49 15.73 21.59 15.69 21.69 15.67 21.79 15.65 21.8 15.65 21.81 15.64 21.83 15.64 21.86 15.64 21.9 15.63 21.95 15.63 21.99 15.62 22.04 15.62 22.09 15.61 22.14 15.61 22.2 15.6 22.25 15.6 22.3 15.59 22.34 15.59 22.38 15.59 22.41 15.59 22.49 15.59 22.56 15.59 22.63 15.59 22.69 15.59 22.75 15.6 22.8 15.6 22.83 15.6 22.84 15.6 22.84 15.58 22.85 15.53 22.86 15.46 22.87 15.41 22.86 15.34 22.83 15.28 22.79 15.23 22.75 15.18 22.69 15.14 22.63 15.11 22.56 15.1 22.49 15.09 22.41 15.09 22.32 15.08 22.22 15.08 22.13 15.09 22.03 15.09 21.93 15.1 21.83 15.11 21.74 15.12 21.65 15.13 21.56 15.15 21.48 15.16 21.41 15.18 21.34 15.2 21.29 15.22 21.25 15.24 21.21 15.26 21.43 14.53 21.49 14.5 21.56 14.48 21.63 14.46 21.7 14.44 21.78 14.43 21.86 14.41 21.93 14.4 22.02 14.39 22.1 14.39 22.19 14.39 22.27 14.38 22.37 14.38 22.46 14.38 22.56 14.38 22.66 14.39 22.76 14.39 22.85 14.39 22.94 14.41 23.03 14.43 23.13 14.46 23.22 14.49 23.32 14.54 23.41 14.59 23.49 14.65 23.57 14.71 23.64 14.79 23.7 14.87 23.74 14.96 23.77 15.05 23.8 15.16 23.8 15.27 23.78 15.39 23.46 16.99 23.46 16.99 23.46 16.99"/><polygon class="cls-1" points="23.34 17.68 23.36 17.66 23.48 16.99 23.45 16.98 23.32 17.65 23.34 17.64 23.34 17.68 23.36 17.67 23.36 17.66 23.34 17.68 23.34 17.68 23.34 17.68"/><polygon class="cls-1" points="22.56 17.66 22.58 17.68 23.34 17.68 23.34 17.64 22.58 17.64 22.6 17.66 22.56 17.66 22.56 17.68 22.58 17.68 22.56 17.66 22.56 17.66 22.56 17.66"/><polygon class="cls-1" points="22.61 17.32 22.59 17.29 22.57 17.34 22.57 17.42 22.57 17.53 22.56 17.66 22.6 17.66 22.61 17.53 22.61 17.42 22.61 17.34 22.61 17.32 22.58 17.29 22.61 17.32 22.61 17.32 22.61 17.32"/><polygon class="cls-1" points="21.44 17.7 21.44 17.7 21.52 17.72 21.6 17.73 21.69 17.72 21.78 17.72 21.86 17.7 21.95 17.69 22.03 17.66 22.12 17.64 22.19 17.61 22.27 17.57 22.34 17.54 22.41 17.5 22.47 17.45 22.52 17.41 22.57 17.36 22.61 17.32 22.58 17.29 22.54 17.34 22.5 17.38 22.45 17.42 22.39 17.47 22.33 17.5 22.25 17.54 22.18 17.57 22.11 17.61 22.03 17.63 21.94 17.65 21.86 17.67 21.78 17.68 21.69 17.69 21.6 17.69 21.52 17.68 21.44 17.67 21.44 17.67 21.44 17.7 21.44 17.7 21.44 17.7"/><polygon class="cls-1" points="20.71 16.79 20.71 16.79 20.71 16.86 20.72 16.92 20.73 17 20.74 17.07 20.75 17.13 20.78 17.2 20.8 17.27 20.84 17.33 20.89 17.4 20.93 17.45 20.99 17.51 21.06 17.56 21.14 17.61 21.23 17.65 21.33 17.68 21.44 17.7 21.44 17.67 21.34 17.64 21.24 17.61 21.16 17.57 21.08 17.53 21.02 17.48 20.96 17.43 20.92 17.37 20.87 17.32 20.84 17.25 20.81 17.19 20.79 17.13 20.77 17.06 20.76 16.99 20.75 16.92 20.75 16.86 20.75 16.79 20.75 16.79 20.71 16.79 20.71 16.79 20.71 16.79"/><polygon class="cls-1" points="21.79 15.63 21.79 15.63 21.69 15.65 21.58 15.68 21.48 15.71 21.39 15.75 21.29 15.8 21.2 15.86 21.12 15.92 21.04 16 20.97 16.07 20.91 16.16 20.85 16.25 20.8 16.35 20.76 16.45 20.73 16.56 20.72 16.67 20.71 16.79 20.75 16.79 20.75 16.67 20.77 16.56 20.8 16.46 20.84 16.36 20.88 16.26 20.94 16.18 21 16.09 21.07 16.02 21.14 15.95 21.23 15.89 21.31 15.84 21.41 15.79 21.5 15.74 21.59 15.71 21.69 15.69 21.79 15.67 21.79 15.67 21.79 15.63 21.79 15.63 21.79 15.63"/><polygon class="cls-1" points="22.41 15.57 22.41 15.57 22.38 15.57 22.34 15.57 22.3 15.58 22.25 15.58 22.2 15.59 22.14 15.59 22.09 15.59 22.04 15.6 21.99 15.61 21.95 15.61 21.9 15.62 21.86 15.62 21.83 15.62 21.81 15.63 21.8 15.63 21.79 15.63 21.79 15.67 21.8 15.67 21.82 15.66 21.83 15.66 21.86 15.66 21.9 15.65 21.95 15.65 21.99 15.64 22.04 15.64 22.09 15.63 22.14 15.62 22.2 15.62 22.25 15.62 22.3 15.61 22.34 15.61 22.38 15.61 22.41 15.61 22.41 15.61 22.41 15.57 22.41 15.57 22.41 15.57"/><polygon class="cls-1" points="22.82 15.6 22.84 15.59 22.83 15.59 22.8 15.58 22.75 15.58 22.69 15.57 22.63 15.57 22.56 15.57 22.49 15.57 22.41 15.57 22.41 15.61 22.49 15.61 22.56 15.61 22.63 15.62 22.69 15.62 22.75 15.62 22.8 15.62 22.83 15.62 22.84 15.62 22.86 15.61 22.84 15.62 22.85 15.62 22.86 15.61 22.82 15.6 22.82 15.6 22.82 15.6"/><polygon class="cls-1" points="22.85 15.41 22.85 15.41 22.84 15.46 22.84 15.53 22.83 15.58 22.82 15.6 22.86 15.61 22.86 15.59 22.87 15.53 22.88 15.46 22.89 15.41 22.89 15.41 22.85 15.41 22.85 15.41 22.85 15.41"/><polygon class="cls-1" points="22.49 15.11 22.49 15.11 22.56 15.11 22.63 15.13 22.68 15.16 22.74 15.2 22.78 15.24 22.82 15.29 22.84 15.34 22.85 15.41 22.89 15.41 22.88 15.34 22.85 15.27 22.81 15.21 22.76 15.16 22.7 15.12 22.64 15.1 22.57 15.08 22.49 15.07 22.49 15.07 22.49 15.11 22.49 15.11 22.49 15.11"/><polygon class="cls-1" points="21.2 15.25 21.23 15.27 21.26 15.26 21.3 15.23 21.35 15.22 21.41 15.2 21.49 15.18 21.57 15.17 21.65 15.15 21.74 15.14 21.83 15.13 21.93 15.12 22.03 15.11 22.13 15.11 22.22 15.11 22.32 15.11 22.41 15.11 22.49 15.11 22.49 15.07 22.41 15.07 22.32 15.06 22.22 15.06 22.13 15.07 22.03 15.07 21.93 15.08 21.83 15.09 21.74 15.11 21.65 15.12 21.56 15.13 21.48 15.15 21.41 15.16 21.34 15.18 21.28 15.2 21.24 15.22 21.2 15.24 21.23 15.26 21.2 15.25 21.2 15.25 21.2 15.25"/><polygon class="cls-1" points="21.42 14.51 21.41 14.53 21.2 15.25 21.23 15.26 21.44 14.53 21.43 14.55 21.42 14.51 21.41 14.51 21.41 14.53 21.42 14.51 21.42 14.51 21.42 14.51"/><polygon class="cls-1" points="22.76 14.37 22.76 14.37 22.66 14.37 22.56 14.36 22.46 14.36 22.37 14.36 22.27 14.36 22.19 14.37 22.1 14.37 22.02 14.38 21.93 14.38 21.85 14.39 21.78 14.41 21.7 14.42 21.63 14.44 21.56 14.46 21.49 14.48 21.42 14.51 21.43 14.55 21.5 14.52 21.57 14.49 21.63 14.47 21.71 14.46 21.78 14.44 21.86 14.43 21.93 14.42 22.02 14.41 22.1 14.41 22.19 14.4 22.27 14.4 22.37 14.4 22.46 14.4 22.56 14.4 22.66 14.41 22.76 14.41 22.76 14.41 22.76 14.37 22.76 14.37 22.76 14.37"/><polygon class="cls-1" points="23.8 15.39 23.8 15.39 23.81 15.27 23.81 15.16 23.79 15.05 23.76 14.95 23.71 14.86 23.65 14.77 23.58 14.7 23.5 14.63 23.42 14.57 23.32 14.52 23.23 14.48 23.14 14.44 23.04 14.41 22.94 14.39 22.85 14.38 22.76 14.37 22.76 14.41 22.85 14.41 22.94 14.43 23.03 14.45 23.12 14.48 23.22 14.51 23.31 14.55 23.4 14.6 23.48 14.66 23.55 14.73 23.62 14.8 23.68 14.88 23.72 14.96 23.76 15.06 23.78 15.16 23.78 15.27 23.76 15.39 23.76 15.39 23.8 15.39 23.8 15.39 23.8 15.39"/><polygon class="cls-1" points="23.48 16.99 23.48 16.99 23.8 15.39 23.76 15.39 23.45 16.98 23.45 16.98 23.48 16.99 23.48 16.99 23.48 16.99"/><polygon class="cls-2" points="22.73 16.2 22.73 16.18 22.71 16.16 22.69 16.16 22.66 16.15 22.63 16.14 22.59 16.14 22.55 16.14 22.5 16.14 22.45 16.15 22.4 16.16 22.36 16.16 22.31 16.17 22.27 16.18 22.23 16.18 22.19 16.19 22.16 16.2 22.14 16.2 22.11 16.21 22.08 16.22 22.05 16.23 22.01 16.25 21.97 16.27 21.93 16.29 21.89 16.32 21.85 16.34 21.81 16.38 21.78 16.41 21.75 16.45 21.72 16.49 21.7 16.54 21.68 16.58 21.67 16.64 21.67 16.74 21.68 16.82 21.71 16.88 21.74 16.93 21.79 16.96 21.84 16.97 21.89 16.98 21.94 16.99 22.03 16.98 22.12 16.97 22.2 16.96 22.27 16.94 22.33 16.91 22.39 16.89 22.44 16.86 22.49 16.82 22.53 16.79 22.57 16.75 22.6 16.71 22.63 16.67 22.65 16.64 22.67 16.6 22.68 16.56 22.69 16.53 22.7 16.45 22.71 16.36 22.73 16.27 22.73 16.2 22.73 16.2 22.73 16.2"/><polygon class="cls-1" points="28.95 17.24 28.96 17.17 28.98 17.09 29.03 17.02 29.08 16.96 29.14 16.91 29.21 16.87 29.29 16.84 29.38 16.84 29.46 16.84 29.54 16.87 29.61 16.91 29.68 16.96 29.73 17.02 29.77 17.09 29.79 17.17 29.8 17.24 29.71 17.24 29.7 17.19 29.69 17.12 29.66 17.06 29.62 17.01 29.57 16.97 29.51 16.94 29.45 16.92 29.38 16.91 29.31 16.92 29.24 16.94 29.18 16.97 29.14 17.01 29.09 17.06 29.07 17.12 29.05 17.19 29.04 17.24 28.95 17.24 28.95 17.24 28.95 17.24"/><polygon class="cls-1" points="29.23 17.24 29.23 17.06 29.39 17.06 29.43 17.07 29.46 17.07 29.48 17.08 29.51 17.09 29.52 17.11 29.53 17.13 29.54 17.15 29.54 17.17 29.54 17.2 29.53 17.22 29.52 17.24 29.52 17.24 29.39 17.24 29.4 17.24 29.42 17.24 29.44 17.23 29.46 17.23 29.47 17.22 29.48 17.21 29.48 17.19 29.48 17.17 29.48 17.16 29.47 17.14 29.46 17.14 29.45 17.13 29.44 17.13 29.42 17.13 29.41 17.13 29.39 17.13 29.3 17.13 29.3 17.24 29.23 17.24 29.23 17.24 29.23 17.24"/><polygon class="cls-1" points="28.95 17.24 28.95 17.26 28.96 17.35 28.98 17.43 29.03 17.5 29.08 17.56 29.14 17.61 29.21 17.65 29.29 17.68 29.38 17.69 29.46 17.68 29.54 17.65 29.61 17.61 29.68 17.56 29.73 17.5 29.77 17.43 29.79 17.35 29.8 17.26 29.8 17.24 29.71 17.24 29.71 17.26 29.7 17.33 29.69 17.4 29.66 17.46 29.62 17.51 29.57 17.55 29.51 17.58 29.45 17.61 29.38 17.61 29.31 17.61 29.24 17.58 29.18 17.55 29.14 17.51 29.09 17.46 29.07 17.4 29.05 17.33 29.04 17.26 29.04 17.24 28.95 17.24 28.95 17.24 28.95 17.24"/><polygon class="cls-1" points="29.23 17.24 29.23 17.43 29.3 17.43 29.3 17.28 29.38 17.28 29.47 17.43 29.53 17.43 29.44 17.28 29.46 17.28 29.48 17.27 29.5 17.26 29.51 17.25 29.52 17.24 29.39 17.24 29.38 17.25 29.3 17.25 29.3 17.24 29.23 17.24 29.23 17.24 29.23 17.24"/><path class="cls-4" d="M29,17.26h0v-.09l0-.08L29,17l0-.06.06-.06.07,0,.08,0h.17l.08,0,.07,0,.07.06.05.06,0,.07,0,.08v.09h0v.09l0,.08,0,.07-.05.06-.07.05-.07,0-.08,0h-.17l-.08,0-.07,0-.06-.05,0-.06L29,17.43l0-.08v-.09m.35.17h-.07v-.37h.28v.08h0v.07h-.08l.09.15h-.06l-.09-.15H29.3v.15m.08-.18h.1v0h0v0H29.3v.13h.08m0,.36h.07l.06,0,.06,0,.05,0,0-.05,0-.06,0-.07v-.07h0v-.07l0-.07,0-.06,0,0-.05,0-.06,0-.06,0h-.14l-.07,0-.06,0-.05,0,0,0,0,.06,0,.07v.07h0v.07l0,.07,0,.06,0,.05.05,0,.06,0,.07,0h.07" transform="translate(0 0)"/><polygon class="cls-1" points="23.69 17.66 24.54 17.66 24.54 17.66 24.85 15.94 24.86 15.87 24.88 15.8 24.89 15.74 24.92 15.67 24.95 15.61 24.99 15.54 25.02 15.48 25.07 15.43 25.13 15.37 25.19 15.32 25.26 15.28 25.34 15.24 25.42 15.21 25.52 15.19 25.63 15.17 25.74 15.16 25.79 15.16 25.81 15.16 25.82 15.16 25.82 15.16 25.95 14.39 25.87 14.39 25.79 14.4 25.71 14.42 25.64 14.44 25.57 14.46 25.51 14.49 25.45 14.53 25.39 14.56 25.34 14.61 25.29 14.65 25.24 14.7 25.19 14.75 25.15 14.8 25.1 14.85 25.05 14.91 25.01 14.97 25.1 14.42 24.25 14.42 23.69 17.66 23.69 17.66 23.69 17.66 23.69 17.66"/><polyline class="cls-4" points="23.69 17.66 24.54 17.66 24.54 17.66 24.85 15.94 24.85 15.94 24.86 15.87 24.88 15.8 24.89 15.74 24.92 15.67 24.95 15.61 24.99 15.54 25.02 15.48 25.07 15.43 25.13 15.37 25.19 15.32 25.26 15.28 25.34 15.24 25.42 15.21 25.52 15.19 25.63 15.17 25.74 15.16 25.74 15.16 25.79 15.16 25.81 15.16 25.82 15.16 25.82 15.16 25.95 14.39 25.95 14.39 25.87 14.39 25.79 14.4 25.71 14.42 25.64 14.44 25.57 14.46 25.51 14.49 25.45 14.53 25.39 14.56 25.34 14.61 25.29 14.65 25.24 14.7 25.19 14.75 25.15 14.8 25.1 14.85 25.05 14.91 25.01 14.97 25.1 14.42 24.25 14.42 23.69 17.66 23.69 17.66"/><polygon class="cls-1" points="15.7 17.66 16.55 17.66 16.56 17.66 16.85 15.94 16.86 15.87 16.88 15.81 16.89 15.74 16.91 15.69 16.94 15.62 16.97 15.57 17.01 15.51 17.05 15.46 17.1 15.42 17.15 15.37 17.22 15.33 17.29 15.3 17.37 15.27 17.47 15.25 17.57 15.23 17.69 15.23 17.7 15.23 17.71 15.23 17.72 15.23 17.74 15.23 17.75 15.23 17.77 15.24 17.78 15.24 17.78 15.24 17.78 15.23 17.79 15.19 17.8 15.14 17.82 15.07 17.84 14.99 17.86 14.91 17.89 14.82 17.91 14.74 17.94 14.68 17.97 14.63 18 14.57 18.03 14.52 18.06 14.47 18.08 14.44 18.09 14.41 18.1 14.4 18.1 14.4 18.08 14.4 18.07 14.4 18.05 14.39 18.03 14.39 18 14.39 17.98 14.39 17.96 14.39 17.87 14.39 17.78 14.4 17.7 14.42 17.63 14.44 17.56 14.46 17.5 14.49 17.44 14.52 17.39 14.56 17.34 14.6 17.29 14.64 17.24 14.69 17.2 14.74 17.15 14.79 17.11 14.85 17.06 14.91 17.02 14.97 17.13 14.42 16.26 14.42 15.7 17.66 15.7 17.66 15.7 17.66 15.7 17.66"/><polyline class="cls-4" points="15.7 17.66 16.55 17.66 16.56 17.66 16.85 15.94 16.85 15.94 16.86 15.87 16.88 15.81 16.89 15.74 16.91 15.69 16.94 15.62 16.97 15.57 17.01 15.51 17.05 15.46 17.1 15.42 17.15 15.37 17.22 15.33 17.29 15.3 17.37 15.27 17.47 15.25 17.57 15.23 17.69 15.23 17.69 15.23 17.7 15.23 17.71 15.23 17.72 15.23 17.74 15.23 17.75 15.23 17.77 15.24 17.78 15.24 17.78 15.24 17.78 15.24 17.78 15.23 17.79 15.19 17.8 15.14 17.82 15.07 17.84 14.99 17.86 14.91 17.89 14.82 17.91 14.74 17.91 14.74 17.94 14.68 17.97 14.63 18 14.57 18.03 14.52 18.06 14.47 18.08 14.44 18.09 14.41 18.1 14.4 18.1 14.4 18.1 14.4 18.08 14.4 18.07 14.4 18.05 14.39 18.03 14.39 18 14.39 17.98 14.39 17.96 14.39 17.96 14.39 17.87 14.39 17.78 14.4 17.7 14.42 17.63 14.44 17.56 14.46 17.5 14.49 17.44 14.52 17.39 14.56 17.34 14.6 17.29 14.64 17.24 14.69 17.2 14.74 17.15 14.79 17.11 14.85 17.06 14.91 17.02 14.97 17.13 14.42 16.26 14.42 15.7 17.66 15.7 17.66"/><polygon class="cls-2" points="28.96 20.83 28.96 20.82 28.98 20.74 29.03 20.67 29.08 20.61 29.14 20.56 29.21 20.53 29.29 20.51 29.38 20.5 29.46 20.51 29.54 20.53 29.61 20.56 29.68 20.61 29.73 20.67 29.77 20.74 29.79 20.82 29.79 20.83 29.7 20.83 29.69 20.77 29.66 20.71 29.62 20.66 29.57 20.62 29.51 20.59 29.45 20.56 29.38 20.56 29.31 20.56 29.24 20.59 29.18 20.62 29.14 20.66 29.09 20.71 29.07 20.77 29.05 20.83 28.96 20.83 28.96 20.83 28.96 20.83"/><polygon class="cls-2" points="29.23 20.83 29.23 20.73 29.39 20.73 29.43 20.73 29.46 20.73 29.48 20.74 29.51 20.75 29.52 20.77 29.53 20.78 29.54 20.81 29.54 20.83 29.48 20.83 29.48 20.82 29.48 20.8 29.47 20.79 29.46 20.78 29.45 20.78 29.44 20.77 29.42 20.77 29.41 20.77 29.39 20.77 29.3 20.77 29.3 20.83 29.23 20.83 29.23 20.83 29.23 20.83"/><polygon class="cls-2" points="28.95 20.9 28.96 20.83 29.05 20.83 29.05 20.84 29.04 20.9 28.95 20.9 28.95 20.9 28.95 20.9"/><polygon class="cls-2" points="29.23 20.9 29.23 20.83 29.3 20.83 29.3 20.89 29.38 20.89 29.4 20.89 29.42 20.88 29.44 20.88 29.46 20.87 29.47 20.86 29.48 20.85 29.48 20.84 29.48 20.83 29.54 20.83 29.54 20.83 29.54 20.85 29.53 20.87 29.52 20.89 29.51 20.9 29.23 20.9 29.23 20.9 29.23 20.9"/><polygon class="cls-2" points="29.71 20.9 29.7 20.84 29.7 20.83 29.79 20.83 29.8 20.9 29.71 20.9 29.71 20.9 29.71 20.9"/><polygon class="cls-2" points="28.95 20.9 28.95 20.91 28.96 21 28.98 21.08 29.03 21.15 29.08 21.21 29.14 21.27 29.21 21.3 29.29 21.32 29.38 21.33 29.46 21.32 29.54 21.3 29.61 21.27 29.68 21.21 29.73 21.15 29.77 21.08 29.79 21 29.8 20.91 29.8 20.9 29.71 20.9 29.71 20.91 29.7 20.98 29.69 21.05 29.66 21.11 29.62 21.16 29.57 21.2 29.51 21.23 29.45 21.25 29.38 21.26 29.31 21.25 29.24 21.23 29.18 21.2 29.14 21.16 29.09 21.11 29.07 21.05 29.05 20.98 29.04 20.91 29.04 20.9 28.95 20.9 28.95 20.9 28.95 20.9"/><polygon class="cls-2" points="29.23 20.9 29.23 21.07 29.3 21.07 29.3 20.92 29.38 20.92 29.47 21.07 29.53 21.07 29.44 20.92 29.46 20.92 29.48 20.92 29.5 20.91 29.51 20.9 29.51 20.9 29.23 20.9 29.23 20.9 29.23 20.9"/></g></g></svg>