<svg xmlns="http://www.w3.org/2000/svg" viewBox="0 0 10.51 10.51"><defs><style>.cls-1{fill:#333;}</style></defs><title>자산 26</title><g id="레이어_2" data-name="레이어 2"><g id="레이어_1-2" data-name="레이어 1"><path class="cls-1" d="M8.48,0H2A2,2,0,0,0,0,2V8.48a2,2,0,0,0,2,2H8.48a2,2,0,0,0,2-2V2A2,2,0,0,0,8.48,0Zm.58,1.21H9.3V3H7.52V1.22Zm-5.3,3a1.82,1.82,0,0,1,1.5-.77,1.85,1.85,0,0,1,1.5.77,1.81,1.81,0,0,1,.35,1.08,1.85,1.85,0,0,1-3.7,0A1.81,1.81,0,0,1,3.76,4.18Zm5.73,4.3a1,1,0,0,1-1,1H2a1,1,0,0,1-1-1V4.18H2.59a2.93,2.93,0,0,0-.21,1.08,2.88,2.88,0,0,0,5.75,0,2.93,2.93,0,0,0-.21-1.08H9.49Z"/></g></g></svg>