<svg xmlns="http://www.w3.org/2000/svg" viewBox="0 0 38.79 11.89"><defs><style>.cls-1{fill:#004f9c;}.cls-2{fill:#f6aa00;}</style></defs><title>자산 32</title><g id="레이어_2" data-name="레이어 2"><g id="레이어_1-2" data-name="레이어 1"><polygon class="cls-1" points="13.66 11.72 15.63 0.2 18.77 0.2 16.8 11.72 13.66 11.72 13.66 11.72"/><path class="cls-1" d="M28.19.48A8.2,8.2,0,0,0,25.38,0c-3.11,0-5.29,1.56-5.31,3.8,0,1.66,1.56,2.58,2.75,3.13s1.63.93,1.63,1.43c0,.77-1,1.13-1.88,1.13a6.62,6.62,0,0,1-3-.61l-.4-.18-.44,2.58a9.88,9.88,0,0,0,3.5.61c3.3,0,5.44-1.54,5.46-3.93,0-1.31-.82-2.31-2.63-3.13-1.1-.54-1.77-.89-1.76-1.43s.56-1,1.79-1a5.58,5.58,0,0,1,2.35.44l.29.13.42-2.5Z"/><path class="cls-1" d="M36.24.21H33.82a1.57,1.57,0,0,0-1.65,1L27.51,11.72h3.3s.53-1.41.66-1.73h4l.38,1.72h2.92L36.24.21ZM32.37,7.64l1.25-3.22s.26-.67.42-1.1l.21,1s.6,2.75.73,3.33Z"/><path class="cls-1" d="M11,.21,8,8.07l-.33-1.6A9,9,0,0,0,3.28,1.64L6.09,11.71H9.41L14.36.21Z"/><path class="cls-2" d="M5.1.2H0L0,.44c3.94,1,6.55,3.26,7.63,6l-1.1-5.3C6.34.44,5.79.23,5.1.2Z"/></g></g></svg>